<svg id="Layer_1" data-name="Layer 1" xmlns="http://www.w3.org/2000/svg" viewBox="0 0 1920 1080"><defs><style>.cls-1{fill:#5f5f60;}</style></defs><title>Artboard 1</title><path class="cls-1" d="M523.33,423.62H549v91.66h45v21.49H523.33Z"/><path class="cls-1" d="M621.37,454.67,633.63,495c1.34,4.87,3,10.91,4,15.28h.5c1.18-4.36,2.52-10.58,3.69-15.28l10.07-40.29h27.36l-19.14,54.06c-11.75,32.57-19.64,45.66-28.87,53.89a47,47,0,0,1-24.68,11.25l-5.37-21.66a32.18,32.18,0,0,0,11.08-4.37,29.32,29.32,0,0,0,10.58-10.24,6.66,6.66,0,0,0,1.34-3.69,9.27,9.27,0,0,0-1.18-4.2l-30-75Z"/><path class="cls-1" d="M690,480.86c0-10.24-.34-19-.67-26.19h22.16l1.17,11.25h.5a30.05,30.05,0,0,1,25.35-13.09c16.79,0,29.38,11.08,29.38,35.25v48.68H742.41V491.27c0-10.58-3.69-17.79-12.93-17.79-7.05,0-11.25,4.87-12.93,9.57a17.53,17.53,0,0,0-1,6.38v47.34H690Z"/><path class="cls-1" d="M866.81,454.67c-.34,5.2-.67,12.09-.67,24.34v45.83c0,15.78-3.19,28.71-12.42,36.93-9.07,7.72-21.32,10.07-33.41,10.07-10.74,0-22.16-2.18-29.55-6.38l5-19.31a50.47,50.47,0,0,0,23.84,6.21c12.09,0,21.32-6.55,21.32-21.66v-5.37h-.34c-4.87,6.88-12.76,10.74-22.16,10.74-20.31,0-34.75-16.45-34.75-40.12,0-26.36,17.12-43.14,37.27-43.14,11.25,0,18.3,4.87,22.5,11.58h.34l.84-9.74Zm-26.19,33.41a20.19,20.19,0,0,0-.5-4.7c-1.85-6.72-6.72-11.25-13.77-11.25-9.23,0-16.79,8.39-16.79,23.33,0,12.25,6,21.82,16.79,21.82a13.86,13.86,0,0,0,13.43-10.41,21.68,21.68,0,0,0,.84-6.71Z"/><path class="cls-1" d="M885.95,536.77c.34-5.37.67-15.28.67-24.51V417.57h25.52v46.84h.34c4.87-7.05,13.43-11.58,24.85-11.58,19.64,0,34.08,16.28,33.91,41.47,0,29.55-18.8,44.32-37.6,44.32-9.57,0-18.8-3.53-24.68-13.26h-.34l-1,11.42Zm26.19-34.92a18.74,18.74,0,0,0,.5,4.53,15.45,15.45,0,0,0,14.94,12.09c10.91,0,17.63-8.39,17.63-23.17,0-12.76-5.71-22.83-17.63-22.83-6.88,0-13.26,5.2-14.94,12.59a21.25,21.25,0,0,0-.5,4.7Z"/><path class="cls-1" d="M1004.64,454.67,1016.9,495c1.34,4.87,3,10.91,4,15.28h.5c1.18-4.36,2.52-10.58,3.69-15.28l10.07-40.29h27.36l-19.14,54.06c-11.75,32.57-19.64,45.66-28.88,53.89a47,47,0,0,1-24.68,11.25l-5.37-21.66a32.18,32.18,0,0,0,11.08-4.37,29.32,29.32,0,0,0,10.58-10.24,6.66,6.66,0,0,0,1.34-3.69,9.27,9.27,0,0,0-1.17-4.2l-30.05-75Z"/><path class="cls-1" d="M1108.05,425.13c6.71-1.34,20.31-2.35,33.07-2.35,15.61,0,25.18,1.51,33.41,6.38,7.89,4.2,13.6,11.92,13.6,22.16,0,10.07-5.88,19.47-18.63,24.17v.34c12.93,3.53,22.5,13.26,22.5,27.87,0,10.24-4.7,18.3-11.75,24-8.23,6.55-22,10.24-44.49,10.24a198,198,0,0,1-27.7-1.68Zm25.35,43.31h8.39c13.43,0,20.65-5.54,20.65-13.93,0-8.56-6.55-13.09-18.13-13.09a69.84,69.84,0,0,0-10.91.67Zm0,50.2a80.67,80.67,0,0,0,9.9.34c11.58,0,21.82-4.36,21.82-16.28,0-11.42-10.24-15.95-23-15.95h-8.73Z"/><path class="cls-1" d="M1208.61,481.7c0-12.09-.34-20-.67-27h22l.84,15.11h.67c4.2-11.92,14.27-17,22.16-17a26.32,26.32,0,0,1,5.37.34v24a36.56,36.56,0,0,0-6.88-.67c-9.4,0-15.78,5-17.46,12.93a30.07,30.07,0,0,0-.5,5.71v41.63h-25.52Z"/><path class="cls-1" d="M1294.56,454.67,1306.82,495c1.34,4.87,3,10.91,4,15.28h.5c1.18-4.36,2.52-10.58,3.69-15.28l10.07-40.29h27.36l-19.14,54.06c-11.75,32.57-19.64,45.66-28.87,53.89a47,47,0,0,1-24.68,11.25l-5.37-21.66a32.18,32.18,0,0,0,11.08-4.37,29.33,29.33,0,0,0,10.58-10.24,6.66,6.66,0,0,0,1.34-3.69,9.27,9.27,0,0,0-1.17-4.2l-30.05-75Z"/><path class="cls-1" d="M1439.27,454.67c-.33,5.2-.67,12.09-.67,24.34v45.83c0,15.78-3.19,28.71-12.42,36.93-9.07,7.72-21.32,10.07-33.41,10.07-10.74,0-22.16-2.18-29.55-6.38l5-19.31a50.47,50.47,0,0,0,23.84,6.21c12.09,0,21.32-6.55,21.32-21.66v-5.37h-.34c-4.87,6.88-12.76,10.74-22.16,10.74-20.31,0-34.75-16.45-34.75-40.12,0-26.36,17.12-43.14,37.27-43.14,11.25,0,18.3,4.87,22.5,11.58h.33l.84-9.74Zm-26.19,33.41a20.16,20.16,0,0,0-.5-4.7c-1.85-6.72-6.71-11.25-13.77-11.25-9.23,0-16.79,8.39-16.79,23.33,0,12.25,6,21.82,16.79,21.82a13.86,13.86,0,0,0,13.43-10.41,21.7,21.7,0,0,0,.84-6.71Z"/><path class="cls-1" d="M1459.08,417.57h25.52v46.84h.34A30.64,30.64,0,0,1,1495,456a28.65,28.65,0,0,1,13.26-3.19c16.28,0,28.71,11.25,28.71,35.93v48h-25.52V491.61c0-10.74-3.69-18.13-13.26-18.13-6.71,0-10.91,4.36-12.76,8.9a16.23,16.23,0,0,0-.84,5.71v48.68h-25.52Z"/><path class="cls-1" d="M1634.85,510.41c0,10.74.34,19.47.67,26.36h-22.16l-1.17-11.58h-.5c-3.19,5-10.91,13.43-25.69,13.43-16.62,0-28.87-10.41-28.87-35.76V454.67h25.69v44.15c0,11.92,3.86,19.14,12.76,19.14,7.05,0,11.08-4.87,12.76-8.9a14.25,14.25,0,0,0,.84-5.54V454.67h25.69Z"/><path class="cls-1" d="M1655.17,514.44c4.7,2.85,14.44,6.21,22,6.21,7.72,0,10.91-2.69,10.91-6.88s-2.52-6.21-12.09-9.4c-17-5.71-23.5-14.94-23.33-24.68,0-15.28,13.09-26.86,33.41-26.86,9.57,0,18.13,2.18,23.17,4.7l-4.53,17.63a40.29,40.29,0,0,0-17.79-4.7c-6.21,0-9.74,2.52-9.74,6.72,0,3.86,3.19,5.88,13.26,9.4,15.61,5.37,22.16,13.26,22.33,25.35,0,15.28-12.09,26.52-35.59,26.52-10.74,0-20.31-2.35-26.52-5.71Z"/><path class="cls-1" d="M525.41,585.42v22.76h26.31V585.42h7.1v54.4h-7.1V614.31H525.41v25.51h-7v-54.4Z"/><path class="cls-1" d="M592.41,639.82l-.57-4.92h-.24a14.55,14.55,0,0,1-11.95,5.81c-7.91,0-11.95-5.57-11.95-11.22,0-9.44,8.39-14.61,23.49-14.53v-.81c0-3.23-.89-9-8.88-9A19.47,19.47,0,0,0,572.15,608l-1.61-4.68a24.25,24.25,0,0,1,12.83-3.47c11.95,0,14.85,8.15,14.85,16v14.61a55,55,0,0,0,.65,9.36Zm-1-19.94c-7.75-.16-16.55,1.21-16.55,8.8,0,4.6,3.07,6.78,6.7,6.78a9.72,9.72,0,0,0,9.44-6.54,7.4,7.4,0,0,0,.4-2.26ZM576.1,589.13c0-4.28,3.15-7.67,8.23-7.67,4.84,0,8,3.31,8,7.59s-3.47,7.43-8.07,7.43C579.41,596.47,576.1,593.25,576.1,589.13Zm12.27-.16a4.18,4.18,0,0,0-4.2-4.44c-2.5,0-4,2.1-4,4.6,0,2.1,1.61,4.36,4,4.36A4.25,4.25,0,0,0,588.37,589Z"/><path class="cls-1" d="M609.68,611.33c0-4-.08-7.34-.32-10.57h6.3l.4,6.46h.16a14.37,14.37,0,0,1,12.92-7.35c5.41,0,13.8,3.23,13.8,16.63v23.33h-7.1V617.3c0-6.3-2.34-11.54-9-11.54a10.09,10.09,0,0,0-9.52,7.26,10.22,10.22,0,0,0-.48,3.31v23.49h-7.1Z"/><path class="cls-1" d="M688.22,582.51v47.22c0,3.47.08,7.43.32,10.09h-6.38l-.32-6.78h-.16c-2.18,4.36-6.94,7.67-13.32,7.67-9.44,0-16.71-8-16.71-19.86-.08-13,8-21,17.52-21,6,0,10,2.83,11.78,6h.16V582.51Zm-7.1,34.14a12.54,12.54,0,0,0-.32-3,10.45,10.45,0,0,0-10.25-8.23c-7.35,0-11.7,6.46-11.7,15.09,0,7.91,3.87,14.45,11.54,14.45a10.68,10.68,0,0,0,10.41-8.48,12.34,12.34,0,0,0,.32-3.07Z"/><path class="cls-1" d="M699.68,639.82c.16-2.66.32-6.62.32-10.09V582.51h7V607h.16c2.5-4.36,7-7.18,13.32-7.18,9.69,0,16.55,8.07,16.47,19.94,0,14-8.8,20.91-17.52,20.91-5.65,0-10.17-2.18-13.08-7.34h-.24l-.32,6.46ZM707,624.16a13.33,13.33,0,0,0,.32,2.58A11,11,0,0,0,718,635.06c7.43,0,11.87-6.05,11.87-15,0-7.83-4-14.53-11.62-14.53a11.32,11.32,0,0,0-10.82,8.72,14,14,0,0,0-.4,2.91Z"/><path class="cls-1" d="M745.94,612.94c0-4.6-.08-8.56-.32-12.19h6.22l.24,7.67h.32c1.78-5.25,6.05-8.56,10.82-8.56a7.69,7.69,0,0,1,2,.24v6.7a10.63,10.63,0,0,0-2.42-.24c-5,0-8.56,3.79-9.52,9.12A20,20,0,0,0,753,619v20.83h-7Z"/><path class="cls-1" d="M776.93,600.75l8.56,23.09c.89,2.58,1.86,5.65,2.5,8h.16c.73-2.34,1.53-5.33,2.5-8.15l7.75-22.92h7.51L795.25,628.6c-5.09,13.4-8.56,20.26-13.4,24.46a19.25,19.25,0,0,1-8.72,4.6l-1.78-6a18.77,18.77,0,0,0,6.22-3.47,21.53,21.53,0,0,0,6-7.91,5.1,5.1,0,0,0,.57-1.7,6.2,6.2,0,0,0-.48-1.86l-14.45-36Z"/><path class="cls-1" d="M845.22,600.75c-.16,2.83-.32,6-.32,10.74v22.68c0,9-1.78,14.45-5.57,17.84-3.79,3.55-9.28,4.68-14.21,4.68-4.68,0-9.85-1.13-13-3.23l1.78-5.41a22,22,0,0,0,11.46,3.07c7.26,0,12.59-3.79,12.59-13.64v-4.36h-.16c-2.18,3.63-6.38,6.54-12.43,6.54-9.69,0-16.63-8.23-16.63-19,0-13.24,8.64-20.75,17.6-20.75,6.78,0,10.49,3.55,12.19,6.78h.16l.32-5.89Zm-7.35,15.42a10.12,10.12,0,0,0-.4-3.23,10.23,10.23,0,0,0-9.93-7.51c-6.78,0-11.62,5.73-11.62,14.77,0,7.67,3.87,14,11.54,14a10.38,10.38,0,0,0,9.85-7.26,12.35,12.35,0,0,0,.57-3.79Z"/><path class="cls-1" d="M890.34,600.75c-.16,2.83-.32,6-.32,10.74v22.68c0,9-1.78,14.45-5.57,17.84-3.79,3.55-9.28,4.68-14.21,4.68-4.68,0-9.85-1.13-13-3.23l1.78-5.41a22,22,0,0,0,11.46,3.07c7.26,0,12.59-3.79,12.59-13.64v-4.36h-.16c-2.18,3.63-6.38,6.54-12.43,6.54-9.69,0-16.63-8.23-16.63-19,0-13.24,8.64-20.75,17.6-20.75,6.78,0,10.49,3.55,12.19,6.78h.16l.32-5.89ZM883,616.17a10.12,10.12,0,0,0-.4-3.23,10.23,10.23,0,0,0-9.93-7.51c-6.78,0-11.62,5.73-11.62,14.77,0,7.67,3.87,14,11.54,14a10.38,10.38,0,0,0,9.85-7.26,12.35,12.35,0,0,0,.57-3.79Z"/><path class="cls-1" d="M905.76,621.58c.16,9.61,6.3,13.56,13.4,13.56a25.69,25.69,0,0,0,10.82-2l1.21,5.08a31.65,31.65,0,0,1-13,2.42c-12,0-19.21-7.91-19.21-19.7s6.94-21.07,18.32-21.07c12.75,0,16.14,11.22,16.14,18.4a26.72,26.72,0,0,1-.24,3.31Zm20.83-5.09c.08-4.52-1.86-11.54-9.85-11.54-7.18,0-10.33,6.62-10.9,11.54Z"/><path class="cls-1" d="M950.8,589.53v11.22H961v5.41H950.8v21.07c0,4.84,1.37,7.59,5.33,7.59a15.8,15.8,0,0,0,4.12-.48l.32,5.33a17.4,17.4,0,0,1-6.3,1c-3.31,0-6-1-7.67-3-2-2.1-2.74-5.57-2.74-10.17V606.16h-6.05v-5.41h6.05v-9.36Z"/><path class="cls-1" d="M985.11,632.56a18.62,18.62,0,0,0,9.36,2.83c5.17,0,7.59-2.58,7.59-5.81,0-3.39-2-5.25-7.26-7.18-7-2.5-10.33-6.38-10.33-11.06,0-6.3,5.08-11.46,13.48-11.46a19.49,19.49,0,0,1,9.61,2.42l-1.78,5.17a15.2,15.2,0,0,0-8-2.26c-4.2,0-6.54,2.42-6.54,5.33,0,3.23,2.34,4.68,7.43,6.62,6.78,2.58,10.25,6,10.25,11.78,0,6.86-5.33,11.71-14.61,11.71a22.28,22.28,0,0,1-11-2.66Z"/><path class="cls-1" d="M1018,613.51c0-5-.16-9-.32-12.75h6.38l.32,6.7h.16c2.91-4.76,7.51-7.59,13.88-7.59,9.44,0,16.55,8,16.55,19.86,0,14-8.56,21-17.76,21-5.17,0-9.69-2.26-12-6.13h-.16V655.8h-7Zm7,10.41a15.93,15.93,0,0,0,.32,2.91,11,11,0,0,0,10.65,8.31c7.51,0,11.87-6.13,11.87-15.09,0-7.83-4.12-14.53-11.62-14.53a11.33,11.33,0,0,0-10.74,8.8,11.51,11.51,0,0,0-.48,2.91Z"/><path class="cls-1" d="M1067.92,621.58c.16,9.61,6.3,13.56,13.4,13.56a25.69,25.69,0,0,0,10.82-2l1.21,5.08a31.65,31.65,0,0,1-13,2.42c-12,0-19.21-7.91-19.21-19.7s6.94-21.07,18.32-21.07c12.75,0,16.14,11.22,16.14,18.4a26.72,26.72,0,0,1-.24,3.31Zm20.83-5.09c.08-4.52-1.86-11.54-9.85-11.54-7.18,0-10.33,6.62-10.9,11.54Z"/><path class="cls-1" d="M1132.26,638.37a26.16,26.16,0,0,1-11.22,2.26c-11.79,0-19.45-8-19.45-19.94s8.23-20.74,21-20.74a23.74,23.74,0,0,1,9.85,2l-1.62,5.49a16.47,16.47,0,0,0-8.23-1.86c-9,0-13.8,6.62-13.8,14.77,0,9,5.81,14.61,13.56,14.61A20.18,20.18,0,0,0,1131,633Z"/><path class="cls-1" d="M1148.48,589.77a4.4,4.4,0,0,1-8.8,0,4.33,4.33,0,0,1,4.44-4.44A4.22,4.22,0,0,1,1148.48,589.77Zm-7.91,50V600.75h7.1v39.07Z"/><path class="cls-1" d="M1181.09,639.82l-.57-4.92h-.24a14.55,14.55,0,0,1-11.95,5.81c-7.91,0-11.95-5.57-11.95-11.22,0-9.44,8.39-14.61,23.49-14.53v-.81c0-3.23-.89-9-8.88-9a19.47,19.47,0,0,0-10.17,2.91l-1.61-4.68a24.25,24.25,0,0,1,12.83-3.47c11.95,0,14.85,8.15,14.85,16v14.61a55,55,0,0,0,.65,9.36Zm-1-19.94c-7.75-.16-16.55,1.21-16.55,8.8,0,4.6,3.07,6.78,6.7,6.78a9.72,9.72,0,0,0,9.44-6.54,7.4,7.4,0,0,0,.4-2.26Z"/><path class="cls-1" d="M1198.37,582.51h7.1v57.31h-7.1Z"/><path class="cls-1" d="M1243.73,602.69l3.39-4.84,3.15,2.18-3.39,5c3.79,3.63,5.89,8.88,5.89,14.93,0,14.37-9.93,20.74-19,20.74a18.29,18.29,0,0,1-10-2.74l-3.47,4.92-3-2.42,3.39-4.84c-3.79-3.55-6.05-8.72-6.05-15.09,0-13,8.56-20.66,19.21-20.66A18.47,18.47,0,0,1,1243.73,602.69Zm-3.23,4.84a10.52,10.52,0,0,0-6.86-2.34c-8.72,0-12.19,8.07-12.19,15.18a16.91,16.91,0,0,0,2.91,9.77l.16.08Zm-13.56,25.59a9.65,9.65,0,0,0,6.54,2.26c7.43,0,12.35-6.38,12.35-15.17a17.46,17.46,0,0,0-2.74-9.53h-.16Z"/><path class="cls-1" d="M1261.73,582.51h7.1v57.31h-7.1Z"/><path class="cls-1" d="M1298.62,639.82V606.16h-5.49v-5.41h5.49V598.9c0-5.49,1.21-10.49,4.52-13.64a13.59,13.59,0,0,1,9.52-3.63,16.46,16.46,0,0,1,6.05,1.13l-1,5.49a10.6,10.6,0,0,0-4.52-.89c-6.05,0-7.59,5.33-7.59,11.3v2.1h9.44v5.41h-9.44v33.66Z"/><path class="cls-1" d="M1321.46,612.94c0-4.6-.08-8.56-.32-12.19h6.22l.24,7.67h.32c1.78-5.25,6.05-8.56,10.82-8.56a7.7,7.7,0,0,1,2,.24v6.7a10.63,10.63,0,0,0-2.42-.24c-5,0-8.56,3.79-9.52,9.12a19.92,19.92,0,0,0-.32,3.31v20.83h-7Z"/><path class="cls-1" d="M1369.09,639.82l-.57-4.92h-.24a14.55,14.55,0,0,1-11.95,5.81c-7.91,0-11.95-5.57-11.95-11.22,0-9.44,8.39-14.61,23.49-14.53v-.81c0-3.23-.89-9-8.88-9a19.47,19.47,0,0,0-10.17,2.91l-1.61-4.68a24.25,24.25,0,0,1,12.83-3.47c11.95,0,14.85,8.15,14.85,16v14.61a55,55,0,0,0,.65,9.36Zm-1-19.94c-7.75-.16-16.55,1.21-16.55,8.8,0,4.6,3.07,6.78,6.7,6.78a9.72,9.72,0,0,0,9.44-6.54,7.4,7.4,0,0,0,.4-2.26Z"/><path class="cls-1" d="M1403.71,586.14a100.48,100.48,0,0,1,14.93-1.13c10.09,0,17.27,2.34,22,6.78s7.67,10.74,7.67,19.53-2.75,16.14-7.83,21.15-13.48,7.83-24.05,7.83a113.42,113.42,0,0,1-12.75-.65Zm7,48.11a44.42,44.42,0,0,0,7.1.4c15,0,23.17-8.39,23.17-23.09.08-12.83-7.18-21-22-21a39.85,39.85,0,0,0-8.23.73Z"/><path class="cls-1" d="M1448.11,651.12c3.23-.24,6.05-1.13,7.75-3,1.94-2.26,2.66-5.33,2.66-14.69V600.75h7.1v35.44c0,7.59-1.21,12.51-4.68,16.06-3.15,3.15-8.31,4.44-12.11,4.44Zm18.32-61.35a4.17,4.17,0,0,1-4.44,4.36,4.24,4.24,0,0,1-4.36-4.36,4.35,4.35,0,0,1,4.52-4.44A4.2,4.2,0,0,1,1466.43,589.77Z"/><path class="cls-1" d="M1509.94,629.17c0,4,.08,7.59.32,10.66H1504l-.4-6.38h-.16a14.7,14.7,0,0,1-12.92,7.26c-6.13,0-13.48-3.39-13.48-17.11V600.75h7.1v21.63c0,7.43,2.26,12.43,8.72,12.43a10.27,10.27,0,0,0,9.36-6.46,10.4,10.4,0,0,0,.65-3.63v-24h7.1Z"/><path class="cls-1" d="M1521.72,612.94c0-4.6-.08-8.56-.32-12.19h6.22l.24,7.67h.32c1.78-5.25,6.05-8.56,10.82-8.56a7.7,7.7,0,0,1,2,.24v6.7a10.63,10.63,0,0,0-2.42-.24c-5,0-8.56,3.79-9.52,9.12a19.92,19.92,0,0,0-.32,3.31v20.83h-7Z"/><path class="cls-1" d="M1547.15,632.56a18.62,18.62,0,0,0,9.36,2.83c5.17,0,7.59-2.58,7.59-5.81,0-3.39-2-5.25-7.26-7.18-7-2.5-10.33-6.38-10.33-11.06,0-6.3,5.08-11.46,13.48-11.46a19.49,19.49,0,0,1,9.61,2.42l-1.78,5.17a15.2,15.2,0,0,0-8-2.26c-4.2,0-6.54,2.42-6.54,5.33,0,3.23,2.34,4.68,7.43,6.62,6.78,2.58,10.25,6,10.25,11.78,0,6.86-5.33,11.71-14.61,11.71a22.28,22.28,0,0,1-11-2.66Z"/><path class="cls-1" d="M1580.08,582.51h7.1v57.31h-7.1Z"/><path class="cls-1" d="M1620.77,639.82l-.57-4.92H1620a14.55,14.55,0,0,1-11.95,5.81c-7.91,0-11.95-5.57-11.95-11.22,0-9.44,8.39-14.61,23.49-14.53v-.81c0-3.23-.89-9-8.88-9a19.47,19.47,0,0,0-10.17,2.91l-1.61-4.68a24.25,24.25,0,0,1,12.83-3.47c11.95,0,14.85,8.15,14.85,16v14.61a55,55,0,0,0,.65,9.36Zm-1-19.94c-7.75-.16-16.55,1.21-16.55,8.8,0,4.6,3.07,6.78,6.7,6.78a9.72,9.72,0,0,0,9.44-6.54,7.4,7.4,0,0,0,.4-2.26Z"/><path class="cls-1" d="M1638,611.33c0-4-.08-7.34-.32-10.57h6.3l.4,6.46h.16a14.37,14.37,0,0,1,12.92-7.35c5.41,0,13.8,3.23,13.8,16.63v23.33h-7.1V617.3c0-6.3-2.34-11.54-9-11.54a10.09,10.09,0,0,0-9.52,7.26,10.2,10.2,0,0,0-.48,3.31v23.49H1638Z"/><path class="cls-1" d="M1716.58,582.51v47.22c0,3.47.08,7.43.32,10.09h-6.38l-.32-6.78H1710c-2.18,4.36-6.94,7.67-13.32,7.67-9.44,0-16.71-8-16.71-19.86-.08-13,8-21,17.52-21,6,0,10,2.83,11.79,6h.16V582.51Zm-7.1,34.14a12.54,12.54,0,0,0-.32-3,10.45,10.45,0,0,0-10.25-8.23c-7.34,0-11.7,6.46-11.7,15.09,0,7.91,3.88,14.45,11.54,14.45a10.68,10.68,0,0,0,10.41-8.48,12.34,12.34,0,0,0,.32-3.07Z"/><path class="cls-1" d="M172.75,572.3v42.85c44.28,53.8,209.48,35.23,224.24,0V573.73C362.71,593.25,235.59,609.91,172.75,572.3Zm13.33,41.9c-4.14,0-7.5-5.54-7.5-12.38s3.35-12.38,7.5-12.38,7.5,5.54,7.5,12.38S190.22,614.2,186.08,614.2Zm42.61,16.66c-5.92,0-10.71-5.54-10.71-12.38s4.79-12.38,10.71-12.38,10.71,5.54,10.71,12.38S234.61,630.86,228.69,630.86Zm55.7,4.28a12.38,12.38,0,1,1,12.38-12.38A12.38,12.38,0,0,1,284.39,635.14ZM341,630.86c-5.91,0-10.71-5.54-10.71-12.38s4.8-12.38,10.71-12.38,10.71,5.54,10.71,12.38S347,630.86,341,630.86Zm42.38-15.23c-4.14,0-7.5-5.54-7.5-12.38s3.36-12.38,7.5-12.38,7.5,5.54,7.5,12.38S387.56,615.63,383.42,615.63Z"/><path class="cls-1" d="M320.34,463.54V585.18s51.89-2.62,74.27-22.14c.48-7.14.48-6.19-9.52-31.42,86.17-22.85,81.41-121.4,81.41-121.4s-.48-12.38-8.57-2.86c-3.33,4.28-20.47,75.7-102.36,80.46C350.81,475,337.48,465,320.34,463.54Z"/><path class="cls-1" d="M249.21,463.54V585.18s-51.89-2.62-74.27-22.14c-.48-7.14-.48-6.19,9.52-31.42C98.29,508.77,103,410.21,103,410.21s.48-12.38,8.57-2.86c3.33,4.28,20.47,75.7,102.36,80.46C218.74,475,232.07,465,249.21,463.54Z"/><path class="cls-1" d="M257.55,455.3V585.18s17.85.71,26.42.71,26.9-.71,26.9-.71V455.3C310.87,436.29,257.55,436.29,257.55,455.3ZM284.26,570a11.43,11.43,0,1,1,11.42-11.43A11.43,11.43,0,0,1,284.26,570Zm0-45.35a11.43,11.43,0,1,1,11.42-11.43A11.43,11.43,0,0,1,284.26,524.69Zm0-45.35a11.43,11.43,0,1,1,11.42-11.43A11.43,11.43,0,0,1,284.26,479.34Z"/></svg>