<svg id="Lag_1" data-name="Lag 1" xmlns="http://www.w3.org/2000/svg" viewBox="0 0 818.5 190.5"><defs><style>.cls-1{fill:#fff;}.cls-2{fill:#5f5f60;}</style></defs><title>logo-mikro</title><polygon class="cls-1" points="0 0 0 190 644.5 190.5 818.5 0 0 0"/><path class="cls-2" d="M959.82,533.64h9.88v35.26H987v8.27H959.82Z" transform="translate(-774 -475)"/><path class="cls-2" d="M997.53,545.58l4.71,15.5c.52,1.87,1.16,4.2,1.55,5.88h.19c.45-1.68,1-4.07,1.42-5.88l3.87-15.5h10.53l-7.36,20.79c-4.52,12.53-7.55,17.56-11.11,20.73a18.1,18.1,0,0,1-9.49,4.33l-2.07-8.33a12.38,12.38,0,0,0,4.26-1.68,11.28,11.28,0,0,0,4.07-3.94,2.56,2.56,0,0,0,.52-1.42,3.56,3.56,0,0,0-.45-1.61l-11.56-28.86Z" transform="translate(-774 -475)"/><path class="cls-2" d="M1023.94,555.66c0-3.94-.13-7.3-.26-10.07h8.52l.45,4.33h.19a11.56,11.56,0,0,1,9.75-5c6.46,0,11.3,4.26,11.3,13.56v18.73h-9.81v-17.5c0-4.07-1.42-6.84-5-6.84a5.24,5.24,0,0,0-5,3.68,6.74,6.74,0,0,0-.39,2.45v18.21h-9.81Z" transform="translate(-774 -475)"/><path class="cls-2" d="M1091.93,545.58c-.13,2-.26,4.65-.26,9.36v17.63c0,6.07-1.23,11-4.78,14.21-3.49,3-8.2,3.87-12.85,3.87-4.13,0-8.52-.84-11.36-2.45l1.94-7.43a19.41,19.41,0,0,0,9.17,2.39c4.65,0,8.2-2.52,8.2-8.33v-2.07h-.13a10.1,10.1,0,0,1-8.52,4.13c-7.81,0-13.37-6.33-13.37-15.43,0-10.14,6.59-16.59,14.33-16.59,4.33,0,7,1.87,8.65,4.46h.13l.32-3.75Zm-10.07,12.85a7.77,7.77,0,0,0-.19-1.81,5.38,5.38,0,0,0-5.29-4.33c-3.55,0-6.46,3.23-6.46,9,0,4.71,2.32,8.39,6.46,8.39a5.33,5.33,0,0,0,5.17-4,8.34,8.34,0,0,0,.32-2.58Z" transform="translate(-774 -475)"/><path class="cls-2" d="M1099.29,577.16c.13-2.07.26-5.88.26-9.43V531.31h9.81v18h.13c1.87-2.71,5.17-4.46,9.56-4.46,7.55,0,13.11,6.26,13,15.95,0,11.36-7.23,17-14.46,17a10.48,10.48,0,0,1-9.49-5.1H1108l-.39,4.39Zm10.07-13.43a7.21,7.21,0,0,0,.19,1.74,5.94,5.94,0,0,0,5.75,4.65c4.2,0,6.78-3.23,6.78-8.91,0-4.91-2.2-8.78-6.78-8.78a6.08,6.08,0,0,0-5.75,4.84,8.17,8.17,0,0,0-.19,1.81Z" transform="translate(-774 -475)"/><path class="cls-2" d="M1144.94,545.58l4.71,15.5c.52,1.87,1.16,4.2,1.55,5.88h.19c.45-1.68,1-4.07,1.42-5.88l3.87-15.5h10.52l-7.36,20.79c-4.52,12.53-7.55,17.56-11.11,20.73a18.1,18.1,0,0,1-9.49,4.33l-2.07-8.33a12.38,12.38,0,0,0,4.26-1.68,11.28,11.28,0,0,0,4.07-3.94,2.56,2.56,0,0,0,.52-1.42,3.57,3.57,0,0,0-.45-1.61L1134,545.58Z" transform="translate(-774 -475)"/><path class="cls-2" d="M1184.72,534.22a78.39,78.39,0,0,1,12.72-.9c6,0,9.69.58,12.85,2.45a9.47,9.47,0,0,1,5.23,8.52c0,3.87-2.26,7.49-7.17,9.3v.13c5,1.36,8.65,5.1,8.65,10.72a11.59,11.59,0,0,1-4.52,9.23c-3.16,2.52-8.46,3.94-17.11,3.94a76.14,76.14,0,0,1-10.65-.65Zm9.75,16.66h3.23c5.17,0,7.94-2.13,7.94-5.36s-2.52-5-7-5a26.86,26.86,0,0,0-4.2.26Zm0,19.31a31,31,0,0,0,3.81.13c4.46,0,8.39-1.68,8.39-6.26,0-4.39-3.94-6.13-8.85-6.13h-3.36Z" transform="translate(-774 -475)"/><path class="cls-2" d="M1223.4,556c0-4.65-.13-7.68-.26-10.4h8.46l.32,5.81h.26a9.27,9.27,0,0,1,8.52-6.52,10.12,10.12,0,0,1,2.07.13v9.23a14.06,14.06,0,0,0-2.65-.26c-3.62,0-6.07,1.94-6.72,5a11.57,11.57,0,0,0-.19,2.2v16h-9.81Z" transform="translate(-774 -475)"/><path class="cls-2" d="M1256.46,545.58l4.71,15.5c.52,1.87,1.16,4.2,1.55,5.88h.19c.45-1.68,1-4.07,1.42-5.88l3.87-15.5h10.52l-7.36,20.79c-4.52,12.53-7.55,17.56-11.11,20.73a18.1,18.1,0,0,1-9.49,4.33l-2.07-8.33a12.38,12.38,0,0,0,4.26-1.68,11.28,11.28,0,0,0,4.07-3.94,2.56,2.56,0,0,0,.52-1.42,3.57,3.57,0,0,0-.45-1.61l-11.56-28.86Z" transform="translate(-774 -475)"/><path class="cls-2" d="M1312.12,545.58c-.13,2-.26,4.65-.26,9.36v17.63c0,6.07-1.23,11-4.78,14.21-3.49,3-8.2,3.87-12.85,3.87-4.13,0-8.52-.84-11.36-2.45l1.94-7.43a19.41,19.41,0,0,0,9.17,2.39c4.65,0,8.2-2.52,8.2-8.33v-2.07H1302a10.1,10.1,0,0,1-8.52,4.13c-7.81,0-13.37-6.33-13.37-15.43,0-10.14,6.59-16.59,14.33-16.59,4.33,0,7,1.87,8.65,4.46h.13l.32-3.75ZM1302,558.43a7.76,7.76,0,0,0-.19-1.81,5.38,5.38,0,0,0-5.29-4.33c-3.55,0-6.46,3.23-6.46,9,0,4.71,2.32,8.39,6.46,8.39a5.33,5.33,0,0,0,5.17-4,8.35,8.35,0,0,0,.32-2.58Z" transform="translate(-774 -475)"/><path class="cls-2" d="M1319.74,531.31h9.81v18h.13a11.79,11.79,0,0,1,3.87-3.23,11,11,0,0,1,5.1-1.23c6.26,0,11,4.33,11,13.82v18.47h-9.81V559.79c0-4.13-1.42-7-5.1-7a5.22,5.22,0,0,0-4.91,3.42,6.24,6.24,0,0,0-.32,2.2v18.73h-9.81Z" transform="translate(-774 -475)"/><path class="cls-2" d="M1387.34,567c0,4.13.13,7.49.26,10.14h-8.52l-.45-4.46h-.19a11.26,11.26,0,0,1-9.88,5.17c-6.39,0-11.11-4-11.11-13.75V545.58h9.88v17c0,4.58,1.49,7.36,4.91,7.36a5.28,5.28,0,0,0,4.91-3.42,5.48,5.48,0,0,0,.32-2.13V545.58h9.88Z" transform="translate(-774 -475)"/><path class="cls-2" d="M1395.16,568.57a19.19,19.19,0,0,0,8.46,2.39c3,0,4.2-1,4.2-2.65s-1-2.39-4.65-3.62c-6.52-2.2-9-5.75-9-9.49,0-5.88,5-10.33,12.85-10.33a21.18,21.18,0,0,1,8.91,1.81l-1.74,6.78a15.5,15.5,0,0,0-6.84-1.81c-2.39,0-3.75,1-3.75,2.58s1.23,2.26,5.1,3.62c6,2.07,8.52,5.1,8.59,9.75,0,5.88-4.65,10.2-13.69,10.2a22.36,22.36,0,0,1-10.2-2.2Z" transform="translate(-774 -475)"/><path class="cls-2" d="M960.62,595.87v8.76h10.12v-8.76h2.73V616.8h-2.73V607H960.62v9.81h-2.7V595.87Z" transform="translate(-774 -475)"/><path class="cls-2" d="M986.38,616.8l-.22-1.89h-.09a5.6,5.6,0,0,1-4.59,2.24,4.28,4.28,0,0,1-4.59-4.32c0-3.63,3.23-5.62,9-5.59v-.31c0-1.24-.34-3.48-3.42-3.48a7.49,7.49,0,0,0-3.91,1.12l-.62-1.8a9.33,9.33,0,0,1,4.94-1.33c4.59,0,5.71,3.14,5.71,6.15v5.62a21.16,21.16,0,0,0,.25,3.6Zm-.4-7.67c-3-.06-6.36.47-6.36,3.38a2.42,2.42,0,0,0,2.58,2.61,3.74,3.74,0,0,0,3.63-2.52,2.85,2.85,0,0,0,.16-.87Zm-5.87-11.83a2.93,2.93,0,0,1,3.17-2.95,2.88,2.88,0,0,1,3.07,2.92,3.13,3.13,0,0,1-6.24,0Zm4.72-.06a1.58,1.58,0,1,0-3.14.06,1.57,1.57,0,1,0,3.14-.06Z" transform="translate(-774 -475)"/><path class="cls-2" d="M993,605.84c0-1.55,0-2.83-.12-4.07h2.42l.16,2.48h.06a5.53,5.53,0,0,1,5-2.83c2.08,0,5.31,1.24,5.31,6.4v9h-2.73v-8.66c0-2.42-.9-4.44-3.48-4.44a3.88,3.88,0,0,0-3.66,2.79,3.93,3.93,0,0,0-.19,1.27v9H993Z" transform="translate(-774 -475)"/><path class="cls-2" d="M1023.24,594.75v18.16c0,1.33,0,2.86.12,3.88h-2.45l-.12-2.61h-.06a5.56,5.56,0,0,1-5.12,2.95c-3.63,0-6.43-3.07-6.43-7.64,0-5,3.07-8.07,6.74-8.07a5,5,0,0,1,4.53,2.3h.06v-9Zm-2.73,13.13a4.82,4.82,0,0,0-.12-1.15,4,4,0,0,0-3.94-3.17c-2.83,0-4.5,2.48-4.5,5.81,0,3,1.49,5.56,4.44,5.56a4.11,4.11,0,0,0,4-3.26,4.75,4.75,0,0,0,.12-1.18Z" transform="translate(-774 -475)"/><path class="cls-2" d="M1027.65,616.8c.06-1,.12-2.55.12-3.88V594.75h2.7v9.44h.06a5.6,5.6,0,0,1,5.12-2.76c3.73,0,6.36,3.1,6.33,7.67,0,5.37-3.38,8-6.74,8a5.35,5.35,0,0,1-5-2.83h-.09l-.12,2.48Zm2.83-6a5.13,5.13,0,0,0,.12,1,4.22,4.22,0,0,0,4.1,3.2c2.86,0,4.56-2.33,4.56-5.77,0-3-1.55-5.59-4.47-5.59a4.36,4.36,0,0,0-4.16,3.35,5.38,5.38,0,0,0-.16,1.12Z" transform="translate(-774 -475)"/><path class="cls-2" d="M1045.44,606.46c0-1.77,0-3.29-.12-4.69h2.39l.09,2.95h.12a4.51,4.51,0,0,1,4.16-3.29,3,3,0,0,1,.78.09v2.58a4.09,4.09,0,0,0-.93-.09c-1.92,0-3.29,1.46-3.66,3.51a7.7,7.7,0,0,0-.12,1.27v8h-2.7Z" transform="translate(-774 -475)"/><path class="cls-2" d="M1057.36,601.77l3.29,8.88c.34,1,.71,2.17,1,3.07h.06c.28-.9.59-2,1-3.14l3-8.82h2.89l-4.1,10.71c-2,5.15-3.29,7.79-5.15,9.41a7.4,7.4,0,0,1-3.35,1.77l-.68-2.3a7.22,7.22,0,0,0,2.39-1.33,8.28,8.28,0,0,0,2.3-3,2,2,0,0,0,.22-.65,2.38,2.38,0,0,0-.19-.71l-5.56-13.85Z" transform="translate(-774 -475)"/><path class="cls-2" d="M1083.62,601.77c-.06,1.09-.12,2.3-.12,4.13v8.72c0,3.45-.68,5.56-2.14,6.86a8,8,0,0,1-5.46,1.8,9.7,9.7,0,0,1-5-1.24l.68-2.08a8.47,8.47,0,0,0,4.41,1.18c2.79,0,4.84-1.46,4.84-5.25v-1.68h-.06a5.36,5.36,0,0,1-4.78,2.51c-3.73,0-6.4-3.17-6.4-7.33,0-5.09,3.32-8,6.77-8A5,5,0,0,1,1081,604h.06l.12-2.27Zm-2.83,5.93a3.89,3.89,0,0,0-.16-1.24,3.94,3.94,0,0,0-3.82-2.89c-2.61,0-4.47,2.2-4.47,5.68,0,2.95,1.49,5.4,4.44,5.4a4,4,0,0,0,3.79-2.79,4.75,4.75,0,0,0,.22-1.46Z" transform="translate(-774 -475)"/><path class="cls-2" d="M1101,601.77c-.06,1.09-.12,2.3-.12,4.13v8.72c0,3.45-.68,5.56-2.14,6.86a8,8,0,0,1-5.46,1.8,9.7,9.7,0,0,1-5-1.24l.68-2.08a8.47,8.47,0,0,0,4.41,1.18c2.79,0,4.84-1.46,4.84-5.25v-1.68h-.06a5.36,5.36,0,0,1-4.78,2.51c-3.73,0-6.4-3.17-6.4-7.33,0-5.09,3.32-8,6.77-8a5,5,0,0,1,4.69,2.61h.06l.12-2.27Zm-2.83,5.93a3.89,3.89,0,0,0-.16-1.24,3.94,3.94,0,0,0-3.82-2.89c-2.61,0-4.47,2.2-4.47,5.68,0,2.95,1.49,5.4,4.44,5.4a4,4,0,0,0,3.79-2.79,4.75,4.75,0,0,0,.22-1.46Z" transform="translate(-774 -475)"/><path class="cls-2" d="M1106.91,609.78c.06,3.69,2.42,5.22,5.15,5.22a9.88,9.88,0,0,0,4.16-.78l.47,2a12.17,12.17,0,0,1-5,.93c-4.63,0-7.39-3-7.39-7.58s2.67-8.1,7-8.1c4.91,0,6.21,4.32,6.21,7.08a10.28,10.28,0,0,1-.09,1.27Zm8-2c0-1.74-.71-4.44-3.79-4.44-2.76,0-4,2.55-4.19,4.44Z" transform="translate(-774 -475)"/><path class="cls-2" d="M1124.23,597.46v4.32h3.91v2.08h-3.91V612c0,1.86.53,2.92,2,2.92a6.08,6.08,0,0,0,1.58-.19l.12,2a6.69,6.69,0,0,1-2.42.37,3.79,3.79,0,0,1-2.95-1.15c-.78-.81-1.06-2.14-1.06-3.91v-8.2h-2.33v-2.08h2.33v-3.6Z" transform="translate(-774 -475)"/><path class="cls-2" d="M1137.43,614a7.16,7.16,0,0,0,3.6,1.09c2,0,2.92-1,2.92-2.24s-.78-2-2.79-2.76c-2.7-1-4-2.45-4-4.25,0-2.42,2-4.41,5.18-4.41a7.5,7.5,0,0,1,3.69.93l-.68,2a5.85,5.85,0,0,0-3.07-.87c-1.61,0-2.51.93-2.51,2s.9,1.8,2.86,2.55c2.61,1,3.94,2.3,3.94,4.53,0,2.64-2,4.5-5.62,4.5a8.57,8.57,0,0,1-4.22-1Z" transform="translate(-774 -475)"/><path class="cls-2" d="M1150.1,606.68c0-1.93-.06-3.48-.12-4.91h2.45l.12,2.58h.06a5.91,5.91,0,0,1,5.34-2.92c3.63,0,6.36,3.07,6.36,7.64,0,5.4-3.29,8.07-6.83,8.07a5.27,5.27,0,0,1-4.63-2.36h-.06v8.17h-2.7Zm2.7,4a6.13,6.13,0,0,0,.12,1.12,4.22,4.22,0,0,0,4.1,3.2c2.89,0,4.56-2.36,4.56-5.81,0-3-1.58-5.59-4.47-5.59A4.36,4.36,0,0,0,1153,607a4.43,4.43,0,0,0-.19,1.12Z" transform="translate(-774 -475)"/><path class="cls-2" d="M1169.28,609.78c.06,3.69,2.42,5.22,5.15,5.22a9.88,9.88,0,0,0,4.16-.78l.47,2a12.17,12.17,0,0,1-5,.93c-4.63,0-7.39-3-7.39-7.58s2.67-8.1,7-8.1c4.91,0,6.21,4.32,6.21,7.08a10.28,10.28,0,0,1-.09,1.27Zm8-2c0-1.74-.71-4.44-3.79-4.44-2.76,0-4,2.55-4.19,4.44Z" transform="translate(-774 -475)"/><path class="cls-2" d="M1194,616.24a10.06,10.06,0,0,1-4.32.87c-4.53,0-7.48-3.07-7.48-7.67a7.64,7.64,0,0,1,8.07-8,9.13,9.13,0,0,1,3.79.78l-.62,2.11a6.33,6.33,0,0,0-3.17-.71c-3.45,0-5.31,2.55-5.31,5.68,0,3.48,2.24,5.62,5.22,5.62a7.76,7.76,0,0,0,3.35-.75Z" transform="translate(-774 -475)"/><path class="cls-2" d="M1200.27,597.55a1.69,1.69,0,0,1-3.38,0,1.66,1.66,0,0,1,1.71-1.71A1.62,1.62,0,0,1,1200.27,597.55Zm-3,19.25v-15H1200v15Z" transform="translate(-774 -475)"/><path class="cls-2" d="M1212.81,616.8l-.22-1.89h-.09a5.6,5.6,0,0,1-4.59,2.24,4.28,4.28,0,0,1-4.59-4.32c0-3.63,3.23-5.62,9-5.59v-.31c0-1.24-.34-3.48-3.42-3.48a7.49,7.49,0,0,0-3.91,1.12l-.62-1.8a9.33,9.33,0,0,1,4.94-1.33c4.59,0,5.71,3.14,5.71,6.15v5.62a21.16,21.16,0,0,0,.25,3.6Zm-.4-7.67c-3-.06-6.36.47-6.36,3.38a2.42,2.42,0,0,0,2.58,2.61,3.74,3.74,0,0,0,3.63-2.52,2.85,2.85,0,0,0,.16-.87Z" transform="translate(-774 -475)"/><path class="cls-2" d="M1219.46,594.75h2.73v22h-2.73Z" transform="translate(-774 -475)"/><path class="cls-2" d="M1236.9,602.52l1.3-1.86,1.21.84-1.3,1.93a7.79,7.79,0,0,1,2.27,5.74c0,5.53-3.82,8-7.33,8a7,7,0,0,1-3.85-1.06l-1.33,1.89-1.15-.93,1.3-1.86a7.72,7.72,0,0,1-2.33-5.81c0-5,3.29-7.95,7.39-7.95A7.1,7.1,0,0,1,1236.9,602.52Zm-1.24,1.86a4,4,0,0,0-2.64-.9c-3.35,0-4.69,3.1-4.69,5.84a6.51,6.51,0,0,0,1.12,3.76l.06,0Zm-5.22,9.84a3.71,3.71,0,0,0,2.52.87c2.86,0,4.75-2.45,4.75-5.84a6.72,6.72,0,0,0-1.06-3.66h-.06Z" transform="translate(-774 -475)"/><path class="cls-2" d="M1243.83,594.75h2.73v22h-2.73Z" transform="translate(-774 -475)"/><path class="cls-2" d="M1258,616.8V603.85h-2.11v-2.08H1258v-.71a7.08,7.08,0,0,1,1.74-5.25,5.23,5.23,0,0,1,3.66-1.4,6.33,6.33,0,0,1,2.33.43l-.37,2.11a4.08,4.08,0,0,0-1.74-.34c-2.33,0-2.92,2-2.92,4.35v.81h3.63v2.08h-3.63V616.8Z" transform="translate(-774 -475)"/><path class="cls-2" d="M1266.8,606.46c0-1.77,0-3.29-.12-4.69h2.39l.09,2.95h.12a4.51,4.51,0,0,1,4.16-3.29,3,3,0,0,1,.78.09v2.58a4.09,4.09,0,0,0-.93-.09c-1.93,0-3.29,1.46-3.66,3.51a7.66,7.66,0,0,0-.12,1.27v8h-2.7Z" transform="translate(-774 -475)"/><path class="cls-2" d="M1285.12,616.8l-.22-1.89h-.09a5.6,5.6,0,0,1-4.59,2.24,4.28,4.28,0,0,1-4.59-4.32c0-3.63,3.23-5.62,9-5.59v-.31c0-1.24-.34-3.48-3.42-3.48a7.49,7.49,0,0,0-3.91,1.12l-.62-1.8a9.33,9.33,0,0,1,4.94-1.33c4.59,0,5.71,3.14,5.71,6.15v5.62a21.16,21.16,0,0,0,.25,3.6Zm-.4-7.67c-3-.06-6.36.47-6.36,3.38a2.42,2.42,0,0,0,2.58,2.61,3.74,3.74,0,0,0,3.63-2.52,2.85,2.85,0,0,0,.16-.87Z" transform="translate(-774 -475)"/><path class="cls-2" d="M1298.44,596.15a38.65,38.65,0,0,1,5.74-.43c3.88,0,6.64.9,8.48,2.61a9.64,9.64,0,0,1,2.95,7.51,11.07,11.07,0,0,1-3,8.13c-2,2-5.18,3-9.25,3a43.63,43.63,0,0,1-4.91-.25Zm2.7,18.5a17.08,17.08,0,0,0,2.73.16c5.77,0,8.91-3.23,8.91-8.88,0-4.94-2.76-8.07-8.48-8.07a15.33,15.33,0,0,0-3.17.28Z" transform="translate(-774 -475)"/><path class="cls-2" d="M1315.52,621.14a4.42,4.42,0,0,0,3-1.15c.75-.87,1-2,1-5.65V601.77h2.73V615.4c0,2.92-.47,4.81-1.8,6.18a6.93,6.93,0,0,1-4.66,1.71Zm7-23.6a1.6,1.6,0,0,1-1.71,1.68,1.63,1.63,0,0,1-1.68-1.68,1.67,1.67,0,0,1,1.74-1.71A1.61,1.61,0,0,1,1322.56,597.55Z" transform="translate(-774 -475)"/><path class="cls-2" d="M1339.3,612.7c0,1.55,0,2.92.12,4.1H1337l-.16-2.45h-.06a5.65,5.65,0,0,1-5,2.79c-2.36,0-5.19-1.3-5.19-6.58v-8.79h2.73v8.32c0,2.86.87,4.78,3.35,4.78a4,4,0,0,0,3.6-2.48,4,4,0,0,0,.25-1.4v-9.22h2.73Z" transform="translate(-774 -475)"/><path class="cls-2" d="M1343.83,606.46c0-1.77,0-3.29-.12-4.69h2.39l.09,2.95h.12a4.51,4.51,0,0,1,4.16-3.29,3,3,0,0,1,.78.09v2.58a4.09,4.09,0,0,0-.93-.09c-1.93,0-3.29,1.46-3.66,3.51a7.66,7.66,0,0,0-.12,1.27v8h-2.7Z" transform="translate(-774 -475)"/><path class="cls-2" d="M1353.61,614a7.16,7.16,0,0,0,3.6,1.09c2,0,2.92-1,2.92-2.24s-.78-2-2.79-2.76c-2.7-1-4-2.45-4-4.25,0-2.42,2-4.41,5.18-4.41a7.5,7.5,0,0,1,3.69.93l-.68,2a5.85,5.85,0,0,0-3.07-.87c-1.61,0-2.51.93-2.51,2s.9,1.8,2.86,2.55c2.61,1,3.94,2.3,3.94,4.53,0,2.64-2,4.5-5.62,4.5a8.57,8.57,0,0,1-4.22-1Z" transform="translate(-774 -475)"/><path class="cls-2" d="M1366.28,594.75H1369v22h-2.73Z" transform="translate(-774 -475)"/><path class="cls-2" d="M1381.93,616.8l-.22-1.89h-.09a5.6,5.6,0,0,1-4.59,2.24,4.28,4.28,0,0,1-4.59-4.32c0-3.63,3.23-5.62,9-5.59v-.31c0-1.24-.34-3.48-3.42-3.48a7.49,7.49,0,0,0-3.91,1.12l-.62-1.8a9.33,9.33,0,0,1,4.94-1.33c4.59,0,5.71,3.14,5.71,6.15v5.62a21.16,21.16,0,0,0,.25,3.6Zm-.4-7.67c-3-.06-6.36.47-6.36,3.38a2.42,2.42,0,0,0,2.58,2.61,3.74,3.74,0,0,0,3.63-2.52,2.85,2.85,0,0,0,.16-.87Z" transform="translate(-774 -475)"/><path class="cls-2" d="M1388.57,605.84c0-1.55,0-2.83-.12-4.07h2.42l.16,2.48h.06a5.53,5.53,0,0,1,5-2.83c2.08,0,5.31,1.24,5.31,6.4v9h-2.73v-8.66c0-2.42-.9-4.44-3.48-4.44a3.88,3.88,0,0,0-3.66,2.79,3.92,3.92,0,0,0-.19,1.27v9h-2.73Z" transform="translate(-774 -475)"/><path class="cls-2" d="M1418.78,594.75v18.16c0,1.33,0,2.86.12,3.88h-2.45l-.12-2.61h-.06a5.56,5.56,0,0,1-5.12,2.95c-3.63,0-6.43-3.07-6.43-7.64,0-5,3.07-8.07,6.74-8.07a5,5,0,0,1,4.53,2.3h.06v-9ZM1416,607.89a4.82,4.82,0,0,0-.12-1.15,4,4,0,0,0-3.94-3.17c-2.83,0-4.5,2.48-4.5,5.81,0,3,1.49,5.56,4.44,5.56a4.11,4.11,0,0,0,4-3.26,4.75,4.75,0,0,0,.12-1.18Z" transform="translate(-774 -475)"/><path class="cls-2" d="M825,590.83v16.48c17,20.69,80.57,13.55,86.25,0V591.38C898,598.88,849.14,605.29,825,590.83Zm5.13,16.12c-1.59,0-2.88-2.13-2.88-4.76s1.29-4.76,2.88-4.76,2.88,2.13,2.88,4.76S831.69,606.94,830.1,606.94Zm16.39,6.41c-2.28,0-4.12-2.13-4.12-4.76s1.84-4.76,4.12-4.76,4.12,2.13,4.12,4.76S848.76,613.35,846.49,613.35ZM867.91,615a4.76,4.76,0,1,1,4.76-4.76A4.76,4.76,0,0,1,867.91,615Zm21.79-1.65c-2.27,0-4.12-2.13-4.12-4.76s1.85-4.76,4.12-4.76,4.12,2.13,4.12,4.76S892,613.35,889.7,613.35Zm16.3-5.86c-1.59,0-2.88-2.13-2.88-4.76S904.41,598,906,598s2.88,2.13,2.88,4.76S907.59,607.49,906,607.49Z" transform="translate(-774 -475)"/><path class="cls-2" d="M881.74,549v46.79s20-1,28.57-8.52c.18-2.75.18-2.38-3.66-12.09,33.14-8.79,31.31-46.7,31.31-46.7s-.18-4.76-3.3-1.1c-1.28,1.65-7.87,29.12-39.37,30.95C893.46,553.39,888.33,549.54,881.74,549Z" transform="translate(-774 -475)"/><path class="cls-2" d="M854.38,549v46.79s-20-1-28.57-8.52c-.18-2.75-.18-2.38,3.66-12.09-33.14-8.79-31.31-46.7-31.31-46.7s.18-4.76,3.3-1.1c1.28,1.65,7.87,29.12,39.37,30.95C842.66,553.39,847.79,549.54,854.38,549Z" transform="translate(-774 -475)"/><path class="cls-2" d="M857.59,545.83v50s6.87.27,10.16.27,10.35-.27,10.35-.27v-50C878.1,538.51,857.59,538.51,857.59,545.83ZM867.86,590a4.39,4.39,0,1,1,4.39-4.4A4.4,4.4,0,0,1,867.86,590Zm0-17.44a4.39,4.39,0,1,1,4.39-4.39A4.39,4.39,0,0,1,867.86,572.51Zm0-17.44a4.39,4.39,0,1,1,4.39-4.39A4.4,4.4,0,0,1,867.86,555.07Z" transform="translate(-774 -475)"/></svg>