<svg id="Lag_1" data-name="Lag 1" xmlns="http://www.w3.org/2000/svg" viewBox="0 0 1175.5 190.5"><defs><style>.cls-1{fill:#fff;}.cls-2{fill:#5f5f60;}</style></defs><title>logo-mobile</title><polygon class="cls-1" points="0 0 0 190 985.5 190.5 1175.5 0 0 0"/><path class="cls-2" d="M715.37,485.71h15.14v54H757V552.4H715.37Z" transform="translate(-439 -449)"/><path class="cls-2" d="M773.16,504l7.22,23.75c.79,2.87,1.78,6.43,2.37,9h.3c.69-2.57,1.48-6.23,2.18-9L791.17,504H807.3L796,535.87c-6.93,19.2-11.58,26.92-17,31.76a27.73,27.73,0,0,1-14.55,6.63l-3.17-12.76a19,19,0,0,0,6.53-2.57,17.28,17.28,0,0,0,6.23-6,3.92,3.92,0,0,0,.79-2.18,5.46,5.46,0,0,0-.69-2.47L756.43,504Z" transform="translate(-439 -449)"/><path class="cls-2" d="M813.63,519.45c0-6-.2-11.18-.4-15.44H826.3l.69,6.63h.3a17.71,17.71,0,0,1,14.94-7.72c9.9,0,17.32,6.53,17.32,20.78v28.7h-15V525.58c0-6.23-2.18-10.49-7.62-10.49a8,8,0,0,0-7.62,5.64,10.34,10.34,0,0,0-.59,3.76v27.9h-15Z" transform="translate(-439 -449)"/><path class="cls-2" d="M917.83,504c-.2,3.07-.4,7.12-.4,14.35v27c0,9.3-1.88,16.92-7.32,21.77-5.34,4.55-12.57,5.94-19.69,5.94-6.33,0-13.06-1.29-17.42-3.76l3-11.38A29.75,29.75,0,0,0,890,561.6c7.12,0,12.57-3.86,12.57-12.76v-3.17h-.2c-2.87,4.06-7.52,6.33-13.06,6.33-12,0-20.48-9.7-20.48-23.65,0-15.54,10.09-25.43,22-25.43,6.63,0,10.79,2.87,13.26,6.83h.2l.49-5.74ZM902.39,523.7a11.9,11.9,0,0,0-.3-2.77c-1.09-4-4-6.63-8.11-6.63-5.44,0-9.9,4.95-9.9,13.75,0,7.22,3.56,12.86,9.9,12.86a8.17,8.17,0,0,0,7.92-6.14,12.78,12.78,0,0,0,.49-4Z" transform="translate(-439 -449)"/><path class="cls-2" d="M929.11,552.4c.2-3.17.4-9,.4-14.45V482.14h15v27.61h.2c2.87-4.16,7.92-6.83,14.64-6.83,11.58,0,20.09,9.6,20,24.44,0,17.42-11.08,26.12-22.17,26.12-5.64,0-11.08-2.08-14.55-7.82h-.2l-.59,6.73Zm15.44-20.58a11,11,0,0,0,.3,2.67,9.1,9.1,0,0,0,8.81,7.12c6.43,0,10.39-4.95,10.39-13.66,0-7.52-3.36-13.46-10.39-13.46a9.32,9.32,0,0,0-8.81,7.42,12.53,12.53,0,0,0-.3,2.77Z" transform="translate(-439 -449)"/><path class="cls-2" d="M999.07,504l7.22,23.75c.79,2.87,1.78,6.43,2.38,9h.3c.69-2.57,1.48-6.23,2.18-9l5.94-23.75h16.13l-11.28,31.86c-6.93,19.2-11.58,26.92-17,31.76a27.73,27.73,0,0,1-14.55,6.63L987.2,561.5a19,19,0,0,0,6.53-2.57,17.28,17.28,0,0,0,6.23-6,3.93,3.93,0,0,0,.79-2.18,5.46,5.46,0,0,0-.69-2.47L982.35,504Z" transform="translate(-439 -449)"/><path class="cls-2" d="M1060,486.6a120.13,120.13,0,0,1,19.49-1.39c9.2,0,14.84.89,19.69,3.76a14.52,14.52,0,0,1,8,13.06c0,5.94-3.46,11.48-11,14.25v.2c7.62,2.08,13.26,7.82,13.26,16.43a17.77,17.77,0,0,1-6.93,14.15c-4.85,3.86-13,6-26.22,6a116.69,116.69,0,0,1-16.33-1ZM1075,512.13h4.95c7.92,0,12.17-3.27,12.17-8.21s-3.86-7.72-10.69-7.72a41.17,41.17,0,0,0-6.43.4Zm0,29.59a47.55,47.55,0,0,0,5.84.2c6.83,0,12.86-2.57,12.86-9.6,0-6.73-6-9.4-13.56-9.4H1075Z" transform="translate(-439 -449)"/><path class="cls-2" d="M1119.3,519.94c0-7.12-.2-11.78-.4-15.93h13l.5,8.91h.4c2.47-7,8.41-10,13.06-10a15.51,15.51,0,0,1,3.17.2v14.15a21.55,21.55,0,0,0-4.06-.4c-5.54,0-9.3,3-10.29,7.62a17.73,17.73,0,0,0-.3,3.36V552.4h-15Z" transform="translate(-439 -449)"/><path class="cls-2" d="M1170,504l7.22,23.75c.79,2.87,1.78,6.43,2.37,9h.3c.69-2.57,1.48-6.23,2.18-9L1188,504h16.13l-11.28,31.86c-6.93,19.2-11.58,26.92-17,31.76a27.73,27.73,0,0,1-14.55,6.63l-3.17-12.76a19,19,0,0,0,6.53-2.57,17.29,17.29,0,0,0,6.23-6,3.93,3.93,0,0,0,.79-2.18,5.46,5.46,0,0,0-.69-2.47L1153.24,504Z" transform="translate(-439 -449)"/><path class="cls-2" d="M1255.26,504c-.2,3.07-.4,7.12-.4,14.35v27c0,9.3-1.88,16.92-7.32,21.77-5.34,4.55-12.57,5.94-19.69,5.94-6.33,0-13.06-1.29-17.42-3.76l3-11.38a29.75,29.75,0,0,0,14.05,3.66c7.12,0,12.57-3.86,12.57-12.76v-3.17h-.2c-2.87,4.06-7.52,6.33-13.06,6.33-12,0-20.48-9.7-20.48-23.65,0-15.54,10.09-25.43,22-25.43,6.63,0,10.79,2.87,13.26,6.83h.2l.5-5.74Zm-15.44,19.69a11.89,11.89,0,0,0-.3-2.77c-1.09-4-4-6.63-8.11-6.63-5.44,0-9.9,4.95-9.9,13.75,0,7.22,3.56,12.86,9.9,12.86a8.17,8.17,0,0,0,7.92-6.14,12.79,12.79,0,0,0,.49-4Z" transform="translate(-439 -449)"/><path class="cls-2" d="M1266.94,482.14h15v27.61h.2a18.06,18.06,0,0,1,5.94-4.95,16.89,16.89,0,0,1,7.82-1.88c9.6,0,16.92,6.63,16.92,21.18v28.3h-15V525.78c0-6.33-2.18-10.69-7.82-10.69a8,8,0,0,0-7.52,5.24,9.56,9.56,0,0,0-.5,3.36v28.7h-15Z" transform="translate(-439 -449)"/><path class="cls-2" d="M1370.54,536.86c0,6.33.2,11.48.4,15.54h-13.06l-.69-6.83h-.3c-1.88,3-6.43,7.92-15.14,7.92-9.8,0-17-6.13-17-21.08V504h15.14v26c0,7,2.28,11.28,7.52,11.28a8.1,8.1,0,0,0,7.52-5.24,8.4,8.4,0,0,0,.49-3.27V504h15.14Z" transform="translate(-439 -449)"/><path class="cls-2" d="M1382.51,539.24a29.4,29.4,0,0,0,13,3.66c4.55,0,6.43-1.58,6.43-4.06s-1.48-3.66-7.12-5.54c-10-3.36-13.85-8.81-13.75-14.55,0-9,7.72-15.83,19.69-15.83a32.46,32.46,0,0,1,13.66,2.77l-2.67,10.39a23.75,23.75,0,0,0-10.49-2.77c-3.66,0-5.74,1.48-5.74,4,0,2.28,1.88,3.46,7.82,5.54,9.2,3.17,13.06,7.82,13.16,14.94,0,9-7.12,15.63-21,15.63-6.33,0-12-1.39-15.63-3.36Z" transform="translate(-439 -449)"/><path class="cls-2" d="M716.59,581.08v13.42H732.1V581.08h4.19v32.07H732.1v-15H716.59v15h-4.14V581.08Z" transform="translate(-439 -449)"/><path class="cls-2" d="M756.08,613.14l-.33-2.9h-.14a8.58,8.58,0,0,1-7,3.43c-4.66,0-7-3.28-7-6.61,0-5.57,4.95-8.61,13.85-8.56V598c0-1.9-.52-5.33-5.23-5.33a11.48,11.48,0,0,0-6,1.71l-1-2.76a14.29,14.29,0,0,1,7.57-2c7,0,8.75,4.81,8.75,9.42v8.61a32.42,32.42,0,0,0,.38,5.52Zm-.62-11.75c-4.57-.09-9.75.71-9.75,5.19a3.71,3.71,0,0,0,3.95,4,5.73,5.73,0,0,0,5.57-3.85,4.36,4.36,0,0,0,.24-1.33Zm-9-18.13a4.49,4.49,0,0,1,4.85-4.52,4.41,4.41,0,0,1,4.71,4.47,4.46,4.46,0,0,1-4.76,4.38C748.42,587.59,746.47,585.69,746.47,583.26Zm7.23-.09a2.42,2.42,0,1,0-4.81.09,2.41,2.41,0,1,0,4.81-.09Z" transform="translate(-439 -449)"/><path class="cls-2" d="M766.27,596.35c0-2.38,0-4.33-.19-6.23h3.71l.24,3.81h.1a8.47,8.47,0,0,1,7.61-4.33c3.19,0,8.14,1.9,8.14,9.8v13.75h-4.19V599.87c0-3.71-1.38-6.8-5.33-6.8a6,6,0,0,0-5.61,4.28,6,6,0,0,0-.29,2v13.85h-4.19Z" transform="translate(-439 -449)"/><path class="cls-2" d="M812.56,579.36V607.2c0,2,0,4.38.19,5.95H809l-.19-4h-.1a8.52,8.52,0,0,1-7.85,4.52c-5.57,0-9.85-4.71-9.85-11.7,0-7.66,4.71-12.37,10.32-12.37,3.52,0,5.9,1.67,6.95,3.52h.1V579.36Zm-4.19,20.13a7.39,7.39,0,0,0-.19-1.76,6.16,6.16,0,0,0-6-4.85c-4.33,0-6.9,3.81-6.9,8.9,0,4.66,2.28,8.52,6.8,8.52a6.29,6.29,0,0,0,6.14-5,7.27,7.27,0,0,0,.19-1.81Z" transform="translate(-439 -449)"/><path class="cls-2" d="M819.32,613.14c.09-1.57.19-3.9.19-5.95V579.36h4.14v14.46h.1a8.58,8.58,0,0,1,7.85-4.23c5.71,0,9.75,4.76,9.71,11.75,0,8.23-5.19,12.32-10.32,12.32a8.2,8.2,0,0,1-7.71-4.33h-.14l-.19,3.81Zm4.33-9.23a7.86,7.86,0,0,0,.19,1.52,6.46,6.46,0,0,0,6.28,4.9c4.38,0,7-3.57,7-8.85,0-4.61-2.38-8.56-6.85-8.56a6.68,6.68,0,0,0-6.38,5.14,8.24,8.24,0,0,0-.24,1.71Z" transform="translate(-439 -449)"/><path class="cls-2" d="M846.58,597.3c0-2.71,0-5-.19-7.18h3.66l.14,4.52h.19a6.91,6.91,0,0,1,6.38-5,4.53,4.53,0,0,1,1.19.14v3.95a6.26,6.26,0,0,0-1.43-.14c-2.95,0-5,2.24-5.61,5.38a11.81,11.81,0,0,0-.19,2v12.28h-4.14Z" transform="translate(-439 -449)"/><path class="cls-2" d="M864.85,590.12l5,13.61c.52,1.52,1.09,3.33,1.48,4.71h.09c.43-1.38.9-3.14,1.48-4.81l4.57-13.51h4.42l-6.28,16.42c-3,7.9-5,11.94-7.9,14.42a11.35,11.35,0,0,1-5.14,2.71l-1-3.52a11.06,11.06,0,0,0,3.66-2,12.69,12.69,0,0,0,3.52-4.66,3,3,0,0,0,.33-1,3.65,3.65,0,0,0-.29-1.09l-8.52-21.22Z" transform="translate(-439 -449)"/><path class="cls-2" d="M905.1,590.12c-.1,1.67-.19,3.52-.19,6.33v13.37c0,5.28-1,8.52-3.28,10.51s-5.47,2.76-8.37,2.76a14.86,14.86,0,0,1-7.66-1.9l1-3.19a13,13,0,0,0,6.76,1.81c4.28,0,7.42-2.24,7.42-8V609.2h-.1A8.22,8.22,0,0,1,893.4,613c-5.71,0-9.8-4.85-9.8-11.23,0-7.8,5.09-12.23,10.37-12.23a7.66,7.66,0,0,1,7.18,4h.1l.19-3.47Zm-4.33,9.09a6,6,0,0,0-.24-1.9,6,6,0,0,0-5.85-4.42c-4,0-6.85,3.38-6.85,8.71,0,4.52,2.28,8.28,6.8,8.28a6.12,6.12,0,0,0,5.8-4.28,7.28,7.28,0,0,0,.33-2.24Z" transform="translate(-439 -449)"/><path class="cls-2" d="M931.7,590.12c-.1,1.67-.19,3.52-.19,6.33v13.37c0,5.28-1,8.52-3.28,10.51s-5.47,2.76-8.37,2.76a14.86,14.86,0,0,1-7.66-1.9l1-3.19a13,13,0,0,0,6.76,1.81c4.28,0,7.42-2.24,7.42-8V609.2h-.1A8.22,8.22,0,0,1,920,613c-5.71,0-9.8-4.85-9.8-11.23,0-7.8,5.09-12.23,10.37-12.23a7.66,7.66,0,0,1,7.18,4h.1l.19-3.47Zm-4.33,9.09a6,6,0,0,0-.24-1.9,6,6,0,0,0-5.85-4.42c-4,0-6.85,3.38-6.85,8.71,0,4.52,2.28,8.28,6.8,8.28a6.12,6.12,0,0,0,5.8-4.28,7.28,7.28,0,0,0,.33-2.24Z" transform="translate(-439 -449)"/><path class="cls-2" d="M940.78,602.39c.1,5.66,3.71,8,7.9,8a15.14,15.14,0,0,0,6.38-1.19l.71,3a18.65,18.65,0,0,1-7.66,1.43c-7.09,0-11.32-4.66-11.32-11.61s4.09-12.42,10.8-12.42c7.52,0,9.52,6.61,9.52,10.85a15.75,15.75,0,0,1-.14,2Zm12.28-3c0-2.66-1.09-6.8-5.8-6.8-4.23,0-6.09,3.9-6.42,6.8Z" transform="translate(-439 -449)"/><path class="cls-2" d="M967.33,583.5v6.61h6v3.19h-6v12.42c0,2.85.81,4.47,3.14,4.47a9.31,9.31,0,0,0,2.43-.29l.19,3.14a10.26,10.26,0,0,1-3.71.57,5.8,5.8,0,0,1-4.52-1.76c-1.19-1.24-1.62-3.28-1.62-6V593.3h-3.57v-3.19h3.57V584.6Z" transform="translate(-439 -449)"/><path class="cls-2" d="M987.55,608.86a11,11,0,0,0,5.52,1.67c3,0,4.47-1.52,4.47-3.43s-1.19-3.09-4.28-4.23c-4.14-1.47-6.09-3.76-6.09-6.52,0-3.71,3-6.76,7.95-6.76a11.49,11.49,0,0,1,5.66,1.43l-1,3a9,9,0,0,0-4.71-1.33c-2.47,0-3.85,1.43-3.85,3.14,0,1.9,1.38,2.76,4.38,3.9,4,1.52,6,3.52,6,6.95,0,4-3.14,6.9-8.61,6.9a13.13,13.13,0,0,1-6.47-1.57Z" transform="translate(-439 -449)"/><path class="cls-2" d="M1007,597.63c0-3-.09-5.33-.19-7.52h3.76l.19,3.95h.09a9.05,9.05,0,0,1,8.18-4.47c5.57,0,9.75,4.71,9.75,11.7,0,8.28-5,12.37-10.47,12.37a8.08,8.08,0,0,1-7.09-3.62h-.09v12.51H1007Zm4.14,6.14a9.39,9.39,0,0,0,.19,1.71,6.46,6.46,0,0,0,6.28,4.9c4.42,0,7-3.62,7-8.9,0-4.61-2.43-8.56-6.85-8.56a6.68,6.68,0,0,0-6.33,5.19,6.79,6.79,0,0,0-.29,1.71Z" transform="translate(-439 -449)"/><path class="cls-2" d="M1036.37,602.39c.09,5.66,3.71,8,7.9,8a15.14,15.14,0,0,0,6.38-1.19l.71,3a18.65,18.65,0,0,1-7.66,1.43c-7.09,0-11.32-4.66-11.32-11.61s4.09-12.42,10.8-12.42c7.52,0,9.52,6.61,9.52,10.85a15.75,15.75,0,0,1-.14,2Zm12.28-3c0-2.66-1.09-6.8-5.8-6.8-4.23,0-6.09,3.9-6.42,6.8Z" transform="translate(-439 -449)"/><path class="cls-2" d="M1074.29,612.29a15.42,15.42,0,0,1-6.61,1.33c-6.95,0-11.47-4.71-11.47-11.75s4.85-12.23,12.37-12.23a14,14,0,0,1,5.8,1.19l-1,3.24a9.71,9.71,0,0,0-4.85-1.09c-5.28,0-8.14,3.9-8.14,8.71,0,5.33,3.43,8.61,8,8.61a11.89,11.89,0,0,0,5.14-1.14Z" transform="translate(-439 -449)"/><path class="cls-2" d="M1083.85,583.65a2.59,2.59,0,0,1-5.19,0,2.55,2.55,0,0,1,2.62-2.62A2.49,2.49,0,0,1,1083.85,583.65Zm-4.66,29.5v-23h4.19v23Z" transform="translate(-439 -449)"/><path class="cls-2" d="M1103.08,613.14l-.33-2.9h-.14a8.58,8.58,0,0,1-7,3.43c-4.66,0-7-3.28-7-6.61,0-5.57,4.95-8.61,13.85-8.56V598c0-1.9-.52-5.33-5.23-5.33a11.48,11.48,0,0,0-6,1.71l-1-2.76a14.29,14.29,0,0,1,7.56-2c7,0,8.75,4.81,8.75,9.42v8.61a32.42,32.42,0,0,0,.38,5.52Zm-.62-11.75c-4.57-.09-9.75.71-9.75,5.19a3.71,3.71,0,0,0,3.95,4,5.73,5.73,0,0,0,5.57-3.85,4.36,4.36,0,0,0,.24-1.33Z" transform="translate(-439 -449)"/><path class="cls-2" d="M1113.26,579.36h4.19v33.78h-4.19Z" transform="translate(-439 -449)"/><path class="cls-2" d="M1140,591.26l2-2.85,1.86,1.28-2,3a11.93,11.93,0,0,1,3.47,8.8c0,8.47-5.85,12.23-11.23,12.23a10.78,10.78,0,0,1-5.9-1.62l-2,2.9-1.76-1.43,2-2.85a11.84,11.84,0,0,1-3.57-8.9c0-7.66,5-12.18,11.32-12.18A10.89,10.89,0,0,1,1140,591.26Zm-1.9,2.86a6.2,6.2,0,0,0-4-1.38c-5.14,0-7.18,4.76-7.18,8.95a10,10,0,0,0,1.71,5.76l.1,0Zm-8,15.08a5.69,5.69,0,0,0,3.85,1.33c4.38,0,7.28-3.76,7.28-8.94a10.29,10.29,0,0,0-1.62-5.61h-.1Z" transform="translate(-439 -449)"/><path class="cls-2" d="M1150.61,579.36h4.19v33.78h-4.19Z" transform="translate(-439 -449)"/><path class="cls-2" d="M1172.35,613.14V593.3h-3.24v-3.19h3.24V589c0-3.23.71-6.19,2.66-8a8,8,0,0,1,5.61-2.14,9.7,9.7,0,0,1,3.57.67l-.57,3.24a6.25,6.25,0,0,0-2.66-.52c-3.57,0-4.47,3.14-4.47,6.66v1.24h5.57v3.19h-5.57v19.84Z" transform="translate(-439 -449)"/><path class="cls-2" d="M1185.81,597.3c0-2.71,0-5-.19-7.18h3.66l.14,4.52h.19a6.91,6.91,0,0,1,6.38-5,4.54,4.54,0,0,1,1.19.14v3.95a6.27,6.27,0,0,0-1.43-.14c-3,0-5,2.24-5.61,5.38a11.74,11.74,0,0,0-.19,2v12.28h-4.14Z" transform="translate(-439 -449)"/><path class="cls-2" d="M1213.89,613.14l-.33-2.9h-.14a8.58,8.58,0,0,1-7,3.43c-4.66,0-7-3.28-7-6.61,0-5.57,4.95-8.61,13.85-8.56V598c0-1.9-.52-5.33-5.23-5.33a11.48,11.48,0,0,0-6,1.71l-1-2.76a14.29,14.29,0,0,1,7.56-2c7,0,8.75,4.81,8.75,9.42v8.61a32.42,32.42,0,0,0,.38,5.52Zm-.62-11.75c-4.57-.09-9.75.71-9.75,5.19a3.71,3.71,0,0,0,3.95,4,5.73,5.73,0,0,0,5.57-3.85,4.36,4.36,0,0,0,.24-1.33Z" transform="translate(-439 -449)"/><path class="cls-2" d="M1234.3,581.5a59.23,59.23,0,0,1,8.8-.67c5.95,0,10.18,1.38,13,4s4.52,6.33,4.52,11.51-1.62,9.52-4.62,12.47-7.95,4.62-14.18,4.62a66.86,66.86,0,0,1-7.52-.38Zm4.14,28.36a26.18,26.18,0,0,0,4.19.24c8.85,0,13.65-4.95,13.65-13.61,0-7.56-4.23-12.37-13-12.37a23.49,23.49,0,0,0-4.85.43Z" transform="translate(-439 -449)"/><path class="cls-2" d="M1260.47,619.81A6.77,6.77,0,0,0,1265,618c1.14-1.33,1.57-3.14,1.57-8.66V590.12h4.19V611c0,4.47-.71,7.37-2.76,9.47a10.63,10.63,0,0,1-7.14,2.62Zm10.8-36.16a2.46,2.46,0,0,1-2.62,2.57,2.5,2.5,0,0,1-2.57-2.57,2.56,2.56,0,0,1,2.66-2.62A2.47,2.47,0,0,1,1271.27,583.65Z" transform="translate(-439 -449)"/><path class="cls-2" d="M1296.91,606.86c0,2.38,0,4.47.19,6.28h-3.71l-.24-3.76h-.09a8.66,8.66,0,0,1-7.61,4.28c-3.62,0-7.95-2-7.95-10.09V590.12h4.19v12.75c0,4.38,1.33,7.33,5.14,7.33a6.05,6.05,0,0,0,5.52-3.81,6.13,6.13,0,0,0,.38-2.14V590.12h4.19Z" transform="translate(-439 -449)"/><path class="cls-2" d="M1303.86,597.3c0-2.71,0-5-.19-7.18h3.66l.14,4.52h.19a6.91,6.91,0,0,1,6.38-5,4.54,4.54,0,0,1,1.19.14v3.95a6.27,6.27,0,0,0-1.43-.14c-3,0-5,2.24-5.61,5.38a11.74,11.74,0,0,0-.19,2v12.28h-4.14Z" transform="translate(-439 -449)"/><path class="cls-2" d="M1318.84,608.86a11,11,0,0,0,5.52,1.67c3,0,4.47-1.52,4.47-3.43s-1.19-3.09-4.28-4.23c-4.14-1.47-6.09-3.76-6.09-6.52,0-3.71,3-6.76,7.95-6.76a11.49,11.49,0,0,1,5.66,1.43l-1,3a9,9,0,0,0-4.71-1.33c-2.47,0-3.85,1.43-3.85,3.14,0,1.9,1.38,2.76,4.38,3.9,4,1.52,6,3.52,6,6.95,0,4-3.14,6.9-8.61,6.9a13.13,13.13,0,0,1-6.47-1.57Z" transform="translate(-439 -449)"/><path class="cls-2" d="M1338.26,579.36h4.19v33.78h-4.19Z" transform="translate(-439 -449)"/><path class="cls-2" d="M1362.24,613.14l-.33-2.9h-.14a8.58,8.58,0,0,1-7,3.43c-4.66,0-7-3.28-7-6.61,0-5.57,4.95-8.61,13.85-8.56V598c0-1.9-.52-5.33-5.23-5.33a11.48,11.48,0,0,0-6,1.71l-1-2.76a14.29,14.29,0,0,1,7.56-2c7,0,8.75,4.81,8.75,9.42v8.61a32.42,32.42,0,0,0,.38,5.52Zm-.62-11.75c-4.57-.09-9.75.71-9.75,5.19a3.71,3.71,0,0,0,3.95,4,5.73,5.73,0,0,0,5.57-3.85,4.36,4.36,0,0,0,.24-1.33Z" transform="translate(-439 -449)"/><path class="cls-2" d="M1372.42,596.35c0-2.38,0-4.33-.19-6.23h3.71l.24,3.81h.09a8.47,8.47,0,0,1,7.61-4.33c3.19,0,8.14,1.9,8.14,9.8v13.75h-4.19V599.87c0-3.71-1.38-6.8-5.33-6.8a6,6,0,0,0-5.61,4.28,6,6,0,0,0-.29,2v13.85h-4.19Z" transform="translate(-439 -449)"/><path class="cls-2" d="M1418.71,579.36V607.2c0,2,0,4.38.19,5.95h-3.76l-.19-4h-.09a8.52,8.52,0,0,1-7.85,4.52c-5.57,0-9.85-4.71-9.85-11.7,0-7.66,4.71-12.37,10.32-12.37,3.52,0,5.9,1.67,6.95,3.52h.09V579.36Zm-4.19,20.13a7.39,7.39,0,0,0-.19-1.76,6.16,6.16,0,0,0-6-4.85c-4.33,0-6.9,3.81-6.9,8.9,0,4.66,2.28,8.52,6.8,8.52a6.29,6.29,0,0,0,6.14-5,7.27,7.27,0,0,0,.19-1.81Z" transform="translate(-439 -449)"/><path class="cls-2" d="M508.72,573.35V598.6c26.1,31.71,123.48,20.77,132.18,0V574.19C620.69,585.69,545.76,595.52,508.72,573.35Zm7.86,24.7c-2.44,0-4.42-3.27-4.42-7.3s2-7.3,4.42-7.3,4.42,3.27,4.42,7.3S519,598,516.58,598Zm25.12,9.82c-3.49,0-6.31-3.27-6.31-7.3s2.83-7.3,6.31-7.3,6.31,3.27,6.31,7.3S545.18,607.86,541.69,607.86Zm32.83,2.53a7.3,7.3,0,1,1,7.3-7.3A7.3,7.3,0,0,1,574.53,610.39Zm33.39-2.53c-3.48,0-6.31-3.27-6.31-7.3s2.83-7.3,6.31-7.3,6.32,3.27,6.32,7.3S611.41,607.86,607.92,607.86Zm25-9c-2.44,0-4.42-3.27-4.42-7.3s2-7.3,4.42-7.3,4.42,3.27,4.42,7.3S635.34,598.88,632.9,598.88Z" transform="translate(-439 -449)"/><path class="cls-2" d="M595.72,509.24v71.7s30.59-1.54,43.78-13c.28-4.21.28-3.65-5.61-18.52,50.79-13.47,48-71.56,48-71.56s-.28-7.3-5.05-1.68c-2,2.53-12.07,44.62-60.34,47.43C613.68,516,605.82,510.08,595.72,509.24Z" transform="translate(-439 -449)"/><path class="cls-2" d="M553.79,509.24v71.7s-30.59-1.54-43.78-13c-.28-4.21-.28-3.65,5.61-18.52-50.79-13.47-48-71.56-48-71.56s.28-7.3,5.05-1.68c2,2.53,12.07,44.62,60.34,47.43C535.83,516,543.69,510.08,553.79,509.24Z" transform="translate(-439 -449)"/><path class="cls-2" d="M558.71,504.38v76.55s10.52.42,15.57.42,15.85-.42,15.85-.42V504.38C590.14,493.17,558.71,493.17,558.71,504.38ZM574.45,572a6.73,6.73,0,1,1,6.73-6.74A6.74,6.74,0,0,1,574.45,572Zm0-26.73a6.74,6.74,0,1,1,6.73-6.73A6.73,6.73,0,0,1,574.45,545.28Zm0-26.73a6.74,6.74,0,1,1,6.73-6.73A6.74,6.74,0,0,1,574.45,518.55Z" transform="translate(-439 -449)"/></svg>