<svg id="Lag_1" data-name="Lag 1" xmlns="http://www.w3.org/2000/svg" viewBox="0 0 1664.5 190.5"><defs><style>.cls-1{fill:#fff;}.cls-2{fill:#5f5f60;}</style></defs><title>logo</title><polygon class="cls-1" points="153.5 0 0 0 0 190 153.5 190 153.5 190.5 1474.5 190.5 1664.5 0 157 0 153.5 0"/><path class="cls-2" d="M605,473.87h16.44v58.66h28.79v13.75H605Z" transform="translate(-120 -445)"/><path class="cls-2" d="M667.76,493.75l7.84,25.79c.86,3.12,1.93,7,2.58,9.78h.32c.75-2.79,1.61-6.77,2.36-9.78l6.45-25.79h17.51l-12.25,34.6c-7.52,20.84-12.57,29.22-18.48,34.49a30.11,30.11,0,0,1-15.79,7.2l-3.44-13.86a20.59,20.59,0,0,0,7.09-2.79,18.76,18.76,0,0,0,6.77-6.55,4.26,4.26,0,0,0,.86-2.36,5.93,5.93,0,0,0-.75-2.69l-19.23-48Z" transform="translate(-120 -445)"/><path class="cls-2" d="M711.7,510.51c0-6.55-.22-12.14-.43-16.76h14.18l.75,7.2h.32a19.23,19.23,0,0,1,16.22-8.38c10.74,0,18.8,7.09,18.8,22.56v31.16H745.23V517.17c0-6.77-2.36-11.39-8.27-11.39a8.72,8.72,0,0,0-8.27,6.12A11.22,11.22,0,0,0,728,516v30.3H711.7Z" transform="translate(-120 -445)"/><path class="cls-2" d="M824.84,493.75c-.22,3.33-.43,7.74-.43,15.58v29.33c0,10.1-2,18.37-8,23.64-5.8,4.94-13.65,6.45-21.38,6.45-6.88,0-14.18-1.4-18.91-4.08l3.22-12.36a32.3,32.3,0,0,0,15.26,4c7.74,0,13.65-4.19,13.65-13.86V539h-.22c-3.12,4.41-8.17,6.88-14.18,6.88-13,0-22.24-10.53-22.24-25.68,0-16.87,11-27.61,23.85-27.61,7.2,0,11.71,3.12,14.4,7.41h.22l.54-6.23Zm-16.76,21.38a12.92,12.92,0,0,0-.32-3c-1.18-4.3-4.3-7.2-8.81-7.2-5.91,0-10.74,5.37-10.74,14.93,0,7.84,3.87,14,10.74,14a8.87,8.87,0,0,0,8.6-6.66,13.88,13.88,0,0,0,.54-4.3Z" transform="translate(-120 -445)"/><path class="cls-2" d="M837.09,546.29c.22-3.44.43-9.78.43-15.69V470h16.33v30h.22c3.12-4.51,8.6-7.41,15.9-7.41,12.57,0,21.81,10.42,21.7,26.54,0,18.91-12,28.36-24.07,28.36-6.12,0-12-2.26-15.79-8.49h-.22l-.64,7.31Zm16.76-22.35a12,12,0,0,0,.32,2.9,9.89,9.89,0,0,0,9.56,7.74c7,0,11.28-5.37,11.28-14.83,0-8.17-3.65-14.61-11.28-14.61a10.12,10.12,0,0,0-9.56,8.06,13.6,13.6,0,0,0-.32,3Z" transform="translate(-120 -445)"/><path class="cls-2" d="M913.05,493.75l7.84,25.79c.86,3.12,1.93,7,2.58,9.78h.32c.75-2.79,1.61-6.77,2.36-9.78l6.45-25.79h17.51l-12.25,34.6c-7.52,20.84-12.57,29.22-18.48,34.49A30.11,30.11,0,0,1,903.6,570l-3.44-13.86a20.6,20.6,0,0,0,7.09-2.79,18.76,18.76,0,0,0,6.77-6.55,4.26,4.26,0,0,0,.86-2.36,5.93,5.93,0,0,0-.75-2.69l-19.23-48Z" transform="translate(-120 -445)"/><path class="cls-2" d="M979.24,474.84c4.3-.86,13-1.5,21.17-1.5,10,0,16.12,1,21.38,4.08a15.76,15.76,0,0,1,8.7,14.18c0,6.45-3.76,12.46-11.93,15.47v.22c8.27,2.26,14.4,8.49,14.4,17.84a19.29,19.29,0,0,1-7.52,15.36c-5.26,4.19-14.07,6.55-28.47,6.55A126.7,126.7,0,0,1,979.24,546Zm16.22,27.72h5.37c8.6,0,13.22-3.55,13.22-8.92s-4.19-8.38-11.6-8.38a44.7,44.7,0,0,0-7,.43Zm0,32.13a51.63,51.63,0,0,0,6.34.22c7.41,0,14-2.79,14-10.42,0-7.31-6.55-10.21-14.72-10.21h-5.59Z" transform="translate(-120 -445)"/><path class="cls-2" d="M1043.59,511c0-7.74-.22-12.79-.43-17.3h14.07l.54,9.67h.43c2.69-7.63,9.13-10.85,14.18-10.85a16.85,16.85,0,0,1,3.44.21v15.36a23.4,23.4,0,0,0-4.41-.43c-6,0-10.1,3.22-11.17,8.27a19.25,19.25,0,0,0-.32,3.65v26.65h-16.33Z" transform="translate(-120 -445)"/><path class="cls-2" d="M1098.6,493.75l7.84,25.79c.86,3.12,1.93,7,2.58,9.78h.32c.75-2.79,1.61-6.77,2.36-9.78l6.45-25.79h17.51l-12.25,34.6c-7.52,20.84-12.57,29.22-18.48,34.49a30.11,30.11,0,0,1-15.79,7.2l-3.44-13.86a20.6,20.6,0,0,0,7.09-2.79,18.77,18.77,0,0,0,6.77-6.55,4.26,4.26,0,0,0,.86-2.36,5.93,5.93,0,0,0-.75-2.69l-19.23-48Z" transform="translate(-120 -445)"/><path class="cls-2" d="M1191.22,493.75c-.21,3.33-.43,7.74-.43,15.58v29.33c0,10.1-2,18.37-8,23.64-5.8,4.94-13.65,6.45-21.38,6.45-6.88,0-14.18-1.4-18.91-4.08l3.22-12.36a32.3,32.3,0,0,0,15.26,4c7.74,0,13.65-4.19,13.65-13.86V539h-.22c-3.12,4.41-8.17,6.88-14.18,6.88-13,0-22.24-10.53-22.24-25.68,0-16.87,11-27.61,23.85-27.61,7.2,0,11.71,3.12,14.4,7.41h.21l.54-6.23Zm-16.76,21.38a12.91,12.91,0,0,0-.32-3c-1.18-4.3-4.3-7.2-8.81-7.2-5.91,0-10.74,5.37-10.74,14.93,0,7.84,3.87,14,10.74,14a8.87,8.87,0,0,0,8.6-6.66,13.89,13.89,0,0,0,.54-4.3Z" transform="translate(-120 -445)"/><path class="cls-2" d="M1203.9,470h16.33v30h.22a19.61,19.61,0,0,1,6.45-5.37,18.34,18.34,0,0,1,8.49-2c10.42,0,18.37,7.2,18.37,23v30.73h-16.33v-28.9c0-6.88-2.36-11.6-8.49-11.6a8.69,8.69,0,0,0-8.17,5.69,10.38,10.38,0,0,0-.54,3.65v31.16H1203.9Z" transform="translate(-120 -445)"/><path class="cls-2" d="M1316.39,529.42c0,6.88.22,12.46.43,16.87h-14.18l-.75-7.41h-.32c-2,3.22-7,8.6-16.44,8.6-10.64,0-18.48-6.66-18.48-22.89V493.75h16.44V522c0,7.63,2.47,12.25,8.17,12.25a8.79,8.79,0,0,0,8.17-5.69A9.12,9.12,0,0,0,1300,525V493.75h16.44Z" transform="translate(-120 -445)"/><path class="cls-2" d="M1329.39,532a31.93,31.93,0,0,0,14.08,4c4.94,0,7-1.72,7-4.41s-1.61-4-7.74-6c-10.85-3.65-15-9.56-14.93-15.79,0-9.78,8.38-17.19,21.38-17.19a35.24,35.24,0,0,1,14.83,3l-2.9,11.28a25.79,25.79,0,0,0-11.39-3c-4,0-6.23,1.61-6.23,4.3,0,2.47,2,3.76,8.49,6,10,3.44,14.18,8.49,14.29,16.22,0,9.78-7.74,17-22.78,17-6.88,0-13-1.5-17-3.65Z" transform="translate(-120 -445)"/><path class="cls-2" d="M606.34,577.42V592h16.84V577.42h4.55v34.82h-4.55V595.92H606.34v16.32h-4.49V577.42Z" transform="translate(-120 -445)"/><path class="cls-2" d="M649.22,612.24l-.36-3.15h-.16a9.31,9.31,0,0,1-7.65,3.72c-5.06,0-7.65-3.56-7.65-7.18,0-6,5.37-9.35,15-9.3v-.52c0-2.07-.57-5.79-5.68-5.79a12.46,12.46,0,0,0-6.51,1.86l-1-3a15.52,15.52,0,0,1,8.21-2.22c7.65,0,9.51,5.22,9.51,10.23v9.35a35.2,35.2,0,0,0,.41,6Zm-.67-12.76c-5-.1-10.59.78-10.59,5.63a4,4,0,0,0,4.29,4.34,6.22,6.22,0,0,0,6-4.19,4.74,4.74,0,0,0,.26-1.45Zm-9.76-19.68c0-2.74,2-4.91,5.27-4.91a4.79,4.79,0,0,1,5.11,4.86A4.85,4.85,0,0,1,644,584.5C640.91,584.5,638.79,582.43,638.79,579.8Zm7.85-.1a2.67,2.67,0,0,0-2.69-2.84c-1.6,0-2.53,1.34-2.53,2.95a2.62,2.62,0,1,0,5.22-.1Z" transform="translate(-120 -445)"/><path class="cls-2" d="M660.28,594c0-2.58-.05-4.7-.21-6.77h4l.26,4.13h.1a9.2,9.2,0,0,1,8.27-4.7c3.46,0,8.83,2.07,8.83,10.64v14.93H677V597.83c0-4-1.5-7.39-5.79-7.39a6.46,6.46,0,0,0-6.1,4.65,6.54,6.54,0,0,0-.31,2.12v15h-4.55Z" transform="translate(-120 -445)"/><path class="cls-2" d="M710.54,575.56v30.22c0,2.22.05,4.75.21,6.46h-4.08l-.21-4.34h-.1a9.25,9.25,0,0,1-8.52,4.91c-6,0-10.69-5.11-10.69-12.71-.05-8.32,5.11-13.43,11.21-13.43,3.82,0,6.41,1.81,7.54,3.82h.1V575.56ZM706,597.42a8,8,0,0,0-.21-1.91,6.69,6.69,0,0,0-6.56-5.27c-4.7,0-7.49,4.13-7.49,9.66,0,5.06,2.48,9.25,7.39,9.25a6.83,6.83,0,0,0,6.66-5.42,7.9,7.9,0,0,0,.21-2Z" transform="translate(-120 -445)"/><path class="cls-2" d="M717.88,612.24c.1-1.71.21-4.24.21-6.46V575.56h4.49v15.71h.1a9.31,9.31,0,0,1,8.52-4.6c6.2,0,10.59,5.17,10.54,12.76,0,8.94-5.63,13.38-11.21,13.38a8.91,8.91,0,0,1-8.37-4.7H722l-.21,4.13Zm4.7-10a8.53,8.53,0,0,0,.21,1.65,7,7,0,0,0,6.82,5.32c4.75,0,7.59-3.87,7.59-9.61,0-5-2.58-9.3-7.44-9.3a7.25,7.25,0,0,0-6.92,5.58,9,9,0,0,0-.26,1.86Z" transform="translate(-120 -445)"/><path class="cls-2" d="M747.48,595c0-2.94-.05-5.48-.21-7.8h4l.16,4.91h.21c1.14-3.36,3.87-5.48,6.92-5.48a4.92,4.92,0,0,1,1.29.16v4.29a6.8,6.8,0,0,0-1.55-.16c-3.2,0-5.48,2.43-6.1,5.84a12.82,12.82,0,0,0-.21,2.12v13.33h-4.49Z" transform="translate(-120 -445)"/><path class="cls-2" d="M767.32,587.24,772.79,602c.57,1.65,1.19,3.62,1.6,5.11h.1c.47-1.5,1-3.41,1.6-5.22l5-14.67h4.8L779,605.06c-3.25,8.58-5.48,13-8.58,15.65a12.32,12.32,0,0,1-5.58,2.94l-1.14-3.82a12,12,0,0,0,4-2.22,13.78,13.78,0,0,0,3.82-5.06,3.26,3.26,0,0,0,.36-1.09,4,4,0,0,0-.31-1.19l-9.25-23Z" transform="translate(-120 -445)"/><path class="cls-2" d="M811,587.24c-.1,1.81-.21,3.82-.21,6.87v14.52c0,5.73-1.14,9.25-3.56,11.42s-5.94,3-9.09,3a16.14,16.14,0,0,1-8.32-2.07l1.14-3.46a14.1,14.1,0,0,0,7.34,2c4.65,0,8.06-2.43,8.06-8.73V608h-.1a8.93,8.93,0,0,1-8,4.18c-6.2,0-10.64-5.27-10.64-12.19,0-8.47,5.53-13.28,11.26-13.28a8.32,8.32,0,0,1,7.8,4.34h.1l.21-3.77Zm-4.7,9.87a6.48,6.48,0,0,0-.26-2.07,6.55,6.55,0,0,0-6.35-4.8c-4.34,0-7.44,3.67-7.44,9.45,0,4.91,2.48,9,7.39,9A6.65,6.65,0,0,0,806,604a7.91,7.91,0,0,0,.36-2.43Z" transform="translate(-120 -445)"/><path class="cls-2" d="M839.9,587.24c-.1,1.81-.21,3.82-.21,6.87v14.52c0,5.73-1.14,9.25-3.56,11.42s-5.94,3-9.09,3a16.14,16.14,0,0,1-8.32-2.07l1.14-3.46a14.1,14.1,0,0,0,7.34,2c4.65,0,8.06-2.43,8.06-8.73V608h-.1a8.93,8.93,0,0,1-8,4.18c-6.2,0-10.64-5.27-10.64-12.19,0-8.47,5.53-13.28,11.26-13.28a8.32,8.32,0,0,1,7.8,4.34h.1l.21-3.77Zm-4.7,9.87a6.48,6.48,0,0,0-.26-2.07,6.55,6.55,0,0,0-6.35-4.8c-4.34,0-7.44,3.67-7.44,9.45,0,4.91,2.48,9,7.39,9a6.65,6.65,0,0,0,6.3-4.65,7.91,7.91,0,0,0,.36-2.43Z" transform="translate(-120 -445)"/><path class="cls-2" d="M849.77,600.57c.1,6.15,4,8.68,8.58,8.68a16.44,16.44,0,0,0,6.92-1.29l.78,3.25a20.25,20.25,0,0,1-8.32,1.55c-7.7,0-12.3-5.06-12.3-12.61s4.44-13.48,11.73-13.48c8.16,0,10.33,7.18,10.33,11.78a17.1,17.1,0,0,1-.16,2.12Zm13.33-3.26c.05-2.89-1.19-7.39-6.3-7.39-4.6,0-6.61,4.24-7,7.39Z" transform="translate(-120 -445)"/><path class="cls-2" d="M878.6,580.06v7.18h6.51v3.46H878.6v13.48c0,3.1.88,4.86,3.41,4.86a10.11,10.11,0,0,0,2.63-.31l.21,3.41a11.14,11.14,0,0,1-4,.62,6.3,6.3,0,0,1-4.91-1.91c-1.29-1.34-1.76-3.56-1.76-6.51V590.7h-3.87v-3.46h3.87v-6Z" transform="translate(-120 -445)"/><path class="cls-2" d="M900.55,607.59a11.91,11.91,0,0,0,6,1.81c3.31,0,4.86-1.65,4.86-3.72s-1.29-3.36-4.65-4.6c-4.49-1.6-6.61-4.08-6.61-7.08,0-4,3.25-7.34,8.63-7.34a12.47,12.47,0,0,1,6.15,1.55l-1.14,3.31a9.73,9.73,0,0,0-5.11-1.45c-2.69,0-4.18,1.55-4.18,3.41,0,2.07,1.5,3,4.75,4.24,4.34,1.65,6.56,3.82,6.56,7.54,0,4.39-3.41,7.49-9.35,7.49a14.26,14.26,0,0,1-7-1.71Z" transform="translate(-120 -445)"/><path class="cls-2" d="M921.63,595.4c0-3.2-.1-5.79-.21-8.16h4.08l.21,4.29h.1a9.83,9.83,0,0,1,8.89-4.86c6,0,10.59,5.11,10.59,12.71,0,9-5.48,13.43-11.37,13.43a8.77,8.77,0,0,1-7.7-3.93h-.1v13.59h-4.49Zm4.49,6.66a10.2,10.2,0,0,0,.21,1.86,7,7,0,0,0,6.82,5.32c4.8,0,7.59-3.93,7.59-9.66,0-5-2.64-9.3-7.44-9.3a7.25,7.25,0,0,0-6.87,5.63,7.37,7.37,0,0,0-.31,1.86Z" transform="translate(-120 -445)"/><path class="cls-2" d="M953.55,600.57c.1,6.15,4,8.68,8.58,8.68a16.44,16.44,0,0,0,6.92-1.29l.78,3.25a20.25,20.25,0,0,1-8.32,1.55c-7.7,0-12.3-5.06-12.3-12.61s4.44-13.48,11.73-13.48c8.16,0,10.33,7.18,10.33,11.78a17.1,17.1,0,0,1-.16,2.12Zm13.33-3.26c.05-2.89-1.19-7.39-6.3-7.39-4.6,0-6.61,4.24-7,7.39Z" transform="translate(-120 -445)"/><path class="cls-2" d="M994.73,611.31a16.74,16.74,0,0,1-7.18,1.45c-7.54,0-12.45-5.11-12.45-12.76s5.27-13.28,13.43-13.28a15.2,15.2,0,0,1,6.3,1.29l-1,3.51a10.54,10.54,0,0,0-5.27-1.19c-5.73,0-8.83,4.24-8.83,9.45,0,5.79,3.72,9.35,8.68,9.35A12.91,12.91,0,0,0,994,607.9Z" transform="translate(-120 -445)"/><path class="cls-2" d="M1005.11,580.21a2.82,2.82,0,0,1-5.63,0,2.77,2.77,0,0,1,2.84-2.84A2.7,2.7,0,0,1,1005.11,580.21Zm-5.06,32v-25h4.55v25Z" transform="translate(-120 -445)"/><path class="cls-2" d="M1026,612.24l-.36-3.15h-.16a9.31,9.31,0,0,1-7.65,3.72c-5.06,0-7.65-3.56-7.65-7.18,0-6,5.37-9.35,15-9.3v-.52c0-2.07-.57-5.79-5.68-5.79a12.46,12.46,0,0,0-6.51,1.86l-1-3a15.52,15.52,0,0,1,8.21-2.22c7.65,0,9.51,5.22,9.51,10.23v9.35a35.21,35.21,0,0,0,.41,6Zm-.67-12.76c-5-.1-10.59.78-10.59,5.63a4,4,0,0,0,4.29,4.34,6.22,6.22,0,0,0,6-4.19,4.74,4.74,0,0,0,.26-1.45Z" transform="translate(-120 -445)"/><path class="cls-2" d="M1037,575.56h4.55v36.68H1037Z" transform="translate(-120 -445)"/><path class="cls-2" d="M1066.07,588.48l2.17-3.1,2,1.39-2.17,3.2a13,13,0,0,1,3.77,9.56c0,9.2-6.35,13.28-12.19,13.28a11.7,11.7,0,0,1-6.41-1.76l-2.22,3.15-1.91-1.55,2.17-3.1a12.85,12.85,0,0,1-3.87-9.66c0-8.32,5.48-13.23,12.3-13.23A11.82,11.82,0,0,1,1066.07,588.48Zm-2.07,3.1a6.73,6.73,0,0,0-4.39-1.5c-5.58,0-7.8,5.17-7.8,9.71a10.83,10.83,0,0,0,1.86,6.25l.1.05ZM1055.32,608a6.18,6.18,0,0,0,4.19,1.45c4.75,0,7.9-4.08,7.9-9.71a11.18,11.18,0,0,0-1.76-6.1h-.1Z" transform="translate(-120 -445)"/><path class="cls-2" d="M1077.59,575.56h4.55v36.68h-4.55Z" transform="translate(-120 -445)"/><path class="cls-2" d="M1101.2,612.24V590.7h-3.51v-3.46h3.51v-1.19c0-3.51.78-6.72,2.89-8.73a8.7,8.7,0,0,1,6.1-2.32,10.54,10.54,0,0,1,3.87.72l-.62,3.51a6.78,6.78,0,0,0-2.89-.57c-3.88,0-4.86,3.41-4.86,7.23v1.34h6v3.46h-6v21.54Z" transform="translate(-120 -445)"/><path class="cls-2" d="M1115.82,595c0-2.94-.05-5.48-.21-7.8h4l.16,4.91h.21c1.14-3.36,3.88-5.48,6.92-5.48a4.93,4.93,0,0,1,1.29.16v4.29a6.81,6.81,0,0,0-1.55-.16c-3.2,0-5.48,2.43-6.1,5.84a12.75,12.75,0,0,0-.21,2.12v13.33h-4.49Z" transform="translate(-120 -445)"/><path class="cls-2" d="M1146.3,612.24l-.36-3.15h-.16a9.31,9.31,0,0,1-7.65,3.72c-5.06,0-7.65-3.56-7.65-7.18,0-6,5.37-9.35,15-9.3v-.52c0-2.07-.57-5.79-5.68-5.79a12.46,12.46,0,0,0-6.51,1.86l-1-3a15.52,15.52,0,0,1,8.21-2.22c7.65,0,9.51,5.22,9.51,10.23v9.35a35.21,35.21,0,0,0,.41,6Zm-.67-12.76c-5-.1-10.59.78-10.59,5.63a4,4,0,0,0,4.29,4.34,6.22,6.22,0,0,0,6-4.19,4.74,4.74,0,0,0,.26-1.45Z" transform="translate(-120 -445)"/><path class="cls-2" d="M1168.46,577.89a64.31,64.31,0,0,1,9.56-.72c6.46,0,11.06,1.5,14.1,4.34s4.91,6.87,4.91,12.5-1.76,10.33-5,13.54-8.63,5-15.39,5a72.59,72.59,0,0,1-8.16-.41Zm4.49,30.79a28.43,28.43,0,0,0,4.55.26c9.61,0,14.83-5.37,14.83-14.78.05-8.21-4.6-13.43-14.1-13.43a25.5,25.5,0,0,0-5.27.47Z" transform="translate(-120 -445)"/><path class="cls-2" d="M1196.87,619.47a7.36,7.36,0,0,0,5-1.91c1.24-1.45,1.71-3.41,1.71-9.4V587.24h4.55v22.68c0,4.86-.78,8-3,10.28a11.54,11.54,0,0,1-7.75,2.84Zm11.73-39.26a2.67,2.67,0,0,1-2.84,2.79,2.71,2.71,0,0,1-2.79-2.79,2.78,2.78,0,0,1,2.89-2.84A2.69,2.69,0,0,1,1208.6,580.21Z" transform="translate(-120 -445)"/><path class="cls-2" d="M1236.45,605.42c0,2.58.05,4.86.21,6.82h-4l-.26-4.08h-.1a9.41,9.41,0,0,1-8.27,4.65c-3.93,0-8.63-2.17-8.63-11V587.24h4.55v13.85c0,4.75,1.45,8,5.58,8a6.57,6.57,0,0,0,6-4.13,6.65,6.65,0,0,0,.41-2.33V587.24h4.55Z" transform="translate(-120 -445)"/><path class="cls-2" d="M1244,595c0-2.94-.05-5.48-.21-7.8h4l.16,4.91h.21c1.14-3.36,3.88-5.48,6.92-5.48a4.93,4.93,0,0,1,1.29.16v4.29a6.81,6.81,0,0,0-1.55-.16c-3.2,0-5.48,2.43-6.1,5.84a12.75,12.75,0,0,0-.21,2.12v13.33H1244Z" transform="translate(-120 -445)"/><path class="cls-2" d="M1260.26,607.59a11.91,11.91,0,0,0,6,1.81c3.31,0,4.86-1.65,4.86-3.72s-1.29-3.36-4.65-4.6c-4.49-1.6-6.61-4.08-6.61-7.08,0-4,3.25-7.34,8.63-7.34a12.47,12.47,0,0,1,6.15,1.55l-1.14,3.31a9.73,9.73,0,0,0-5.11-1.45c-2.69,0-4.18,1.55-4.18,3.41,0,2.07,1.5,3,4.75,4.24,4.34,1.65,6.56,3.82,6.56,7.54,0,4.39-3.41,7.49-9.35,7.49a14.26,14.26,0,0,1-7-1.71Z" transform="translate(-120 -445)"/><path class="cls-2" d="M1281.34,575.56h4.55v36.68h-4.55Z" transform="translate(-120 -445)"/><path class="cls-2" d="M1307.38,612.24l-.36-3.15h-.16a9.31,9.31,0,0,1-7.65,3.72c-5.06,0-7.65-3.56-7.65-7.18,0-6,5.37-9.35,15-9.3v-.52c0-2.07-.57-5.79-5.68-5.79a12.46,12.46,0,0,0-6.51,1.86l-1-3a15.52,15.52,0,0,1,8.21-2.22c7.65,0,9.51,5.22,9.51,10.23v9.35a35.21,35.21,0,0,0,.41,6Zm-.67-12.76c-5-.1-10.59.78-10.59,5.63a4,4,0,0,0,4.29,4.34,6.22,6.22,0,0,0,6-4.19,4.74,4.74,0,0,0,.26-1.45Z" transform="translate(-120 -445)"/><path class="cls-2" d="M1318.43,594c0-2.58-.05-4.7-.21-6.77h4l.26,4.13h.1a9.2,9.2,0,0,1,8.27-4.7c3.46,0,8.83,2.07,8.83,10.64v14.93h-4.55V597.83c0-4-1.5-7.39-5.79-7.39a6.46,6.46,0,0,0-6.1,4.65,6.53,6.53,0,0,0-.31,2.12v15h-4.55Z" transform="translate(-120 -445)"/><path class="cls-2" d="M1368.7,575.56v30.22c0,2.22.05,4.75.21,6.46h-4.08l-.21-4.34h-.1a9.25,9.25,0,0,1-8.52,4.91c-6,0-10.69-5.11-10.69-12.71-.05-8.32,5.11-13.43,11.21-13.43,3.82,0,6.41,1.81,7.54,3.82h.1V575.56Zm-4.55,21.85a8,8,0,0,0-.21-1.91,6.69,6.69,0,0,0-6.56-5.27c-4.7,0-7.49,4.13-7.49,9.66,0,5.06,2.48,9.25,7.39,9.25a6.83,6.83,0,0,0,6.66-5.42,7.9,7.9,0,0,0,.21-2Z" transform="translate(-120 -445)"/><path class="cls-2" d="M380.64,569v27.42c28.34,34.43,134.07,22.55,143.52,0V569.94C502.21,582.44,420.86,593.1,380.64,569Zm8.53,26.81c-2.65,0-4.8-3.55-4.8-7.92s2.15-7.92,4.8-7.92,4.8,3.55,4.8,7.92S391.82,595.84,389.17,595.84Zm27.27,10.66c-3.79,0-6.86-3.55-6.86-7.92s3.07-7.92,6.86-7.92,6.86,3.55,6.86,7.92S420.23,606.51,416.44,606.51Zm35.65,2.74a7.92,7.92,0,1,1,7.92-7.92A7.92,7.92,0,0,1,452.09,609.25Zm36.26-2.74c-3.78,0-6.86-3.55-6.86-7.92s3.07-7.92,6.86-7.92,6.86,3.55,6.86,7.92S492.14,606.51,488.35,606.51Zm27.12-9.75c-2.65,0-4.8-3.55-4.8-7.92s2.15-7.92,4.8-7.92,4.8,3.55,4.8,7.92S518.12,596.76,515.47,596.76Z" transform="translate(-120 -445)"/><path class="cls-2" d="M475.1,499.42v77.85s33.21-1.68,47.53-14.17c.3-4.57.3-4-6.09-20.11,55.15-14.63,52.1-77.7,52.1-77.7s-.31-7.92-5.48-1.83c-2.13,2.74-13.1,48.45-65.51,51.5C494.6,506.73,486.07,500.33,475.1,499.42Z" transform="translate(-120 -445)"/><path class="cls-2" d="M429.57,499.42v77.85S396.36,575.6,382,563.1c-.3-4.57-.3-4,6.09-20.11C333,528.37,336,465.29,336,465.29s.31-7.92,5.48-1.83c2.13,2.74,13.1,48.45,65.51,51.49C410.07,506.73,418.61,500.33,429.57,499.42Z" transform="translate(-120 -445)"/><path class="cls-2" d="M434.91,494.15v83.12s11.43.46,16.91.46,17.22-.46,17.22-.46V494.15C469,482,434.91,482,434.91,494.15ZM452,567.58a7.31,7.31,0,1,1,7.31-7.31A7.31,7.31,0,0,1,452,567.58Zm0-29a7.31,7.31,0,1,1,7.31-7.31A7.31,7.31,0,0,1,452,538.56Zm0-29a7.31,7.31,0,1,1,7.31-7.31A7.31,7.31,0,0,1,452,509.54Z" transform="translate(-120 -445)"/></svg>