<svg id="Lag_1" data-name="Lag 1" xmlns="http://www.w3.org/2000/svg" viewBox="0 0 1076.5 190.5"><defs><style>.cls-1{fill:#fff;}.cls-2{fill:#5f5f60;}</style></defs><title>logo-lilleMobile</title><polygon class="cls-1" points="0 0 0 190 902.5 190.5 1076.5 0 0 0"/><path class="cls-2" d="M773.34,497.07h13.89v49.58h24.33v11.62H773.34Z" transform="translate(-534 -459)"/><path class="cls-2" d="M826.37,513.87,833,535.66c.73,2.63,1.63,5.9,2.18,8.26h.27c.64-2.36,1.36-5.72,2-8.26l5.45-21.79h14.8l-10.35,29.24c-6.36,17.62-10.62,24.7-15.62,29.15a25.45,25.45,0,0,1-13.35,6.08l-2.91-11.71a17.4,17.4,0,0,0,6-2.36,15.86,15.86,0,0,0,5.72-5.54,3.6,3.6,0,0,0,.73-2,5,5,0,0,0-.64-2.27L811,513.87Z" transform="translate(-534 -459)"/><path class="cls-2" d="M863.51,528c0-5.54-.18-10.26-.36-14.16h12l.64,6.08H876a16.25,16.25,0,0,1,13.71-7.08c9.08,0,15.89,6,15.89,19.07v26.33h-13.8V533.67c0-5.72-2-9.62-7-9.62a7.37,7.37,0,0,0-7,5.18,9.48,9.48,0,0,0-.54,3.45v25.61h-13.8Z" transform="translate(-534 -459)"/><path class="cls-2" d="M959.12,513.87c-.18,2.81-.36,6.54-.36,13.17v24.79c0,8.54-1.73,15.53-6.72,20-4.9,4.18-11.53,5.45-18.07,5.45-5.81,0-12-1.18-16-3.45l2.72-10.44a27.3,27.3,0,0,0,12.89,3.36c6.54,0,11.53-3.54,11.53-11.71V552.1H945a14.2,14.2,0,0,1-12,5.81c-11,0-18.8-8.9-18.8-21.7,0-14.26,9.26-23.34,20.16-23.34,6.08,0,9.9,2.63,12.17,6.27h.18l.45-5.27ZM945,531.94a10.92,10.92,0,0,0-.27-2.54c-1-3.63-3.63-6.08-7.45-6.08-5,0-9.08,4.54-9.08,12.62,0,6.63,3.27,11.8,9.08,11.8a7.49,7.49,0,0,0,7.26-5.63,11.73,11.73,0,0,0,.45-3.63Z" transform="translate(-534 -459)"/><path class="cls-2" d="M969.47,558.27c.18-2.91.36-8.26.36-13.26V493.8h13.8v25.33h.18c2.63-3.81,7.26-6.27,13.44-6.27,10.62,0,18.43,8.81,18.34,22.43,0,16-10.17,24-20.34,24-5.18,0-10.17-1.91-13.35-7.17h-.18l-.54,6.17Zm14.16-18.89a10.14,10.14,0,0,0,.27,2.45,8.35,8.35,0,0,0,8.08,6.54c5.9,0,9.53-4.54,9.53-12.53,0-6.9-3.09-12.35-9.53-12.35a8.55,8.55,0,0,0-8.08,6.81,11.49,11.49,0,0,0-.27,2.54Z" transform="translate(-534 -459)"/><path class="cls-2" d="M1033.67,513.87l6.63,21.79c.73,2.63,1.63,5.9,2.18,8.26h.27c.64-2.36,1.36-5.72,2-8.26l5.45-21.79H1065l-10.35,29.24c-6.36,17.62-10.62,24.7-15.62,29.15a25.45,25.45,0,0,1-13.35,6.08l-2.91-11.71a17.41,17.41,0,0,0,6-2.36,15.86,15.86,0,0,0,5.72-5.54,3.6,3.6,0,0,0,.73-2,5,5,0,0,0-.64-2.27l-16.25-40.59Z" transform="translate(-534 -459)"/><path class="cls-2" d="M1089.6,497.89a110.23,110.23,0,0,1,17.89-1.27c8.44,0,13.62.82,18.07,3.45a13.32,13.32,0,0,1,7.35,12c0,5.45-3.18,10.53-10.08,13.08v.18c7,1.91,12.17,7.17,12.17,15.07a16.3,16.3,0,0,1-6.36,13c-4.45,3.54-11.89,5.54-24.06,5.54a107.07,107.07,0,0,1-15-.91Zm13.71,23.43h4.54c7.26,0,11.17-3,11.17-7.54s-3.54-7.08-9.81-7.08a37.77,37.77,0,0,0-5.9.36Zm0,27.15a43.63,43.63,0,0,0,5.36.18c6.27,0,11.8-2.36,11.8-8.81,0-6.17-5.54-8.63-12.44-8.63h-4.72Z" transform="translate(-534 -459)"/><path class="cls-2" d="M1144,528.49c0-6.54-.18-10.8-.36-14.62h11.89L1156,522h.36c2.27-6.45,7.72-9.17,12-9.17a14.24,14.24,0,0,1,2.91.18v13a19.78,19.78,0,0,0-3.72-.36c-5.08,0-8.53,2.72-9.44,7a16.27,16.27,0,0,0-.27,3.09v22.52H1144Z" transform="translate(-534 -459)"/><path class="cls-2" d="M1190.47,513.87l6.63,21.79c.73,2.63,1.63,5.9,2.18,8.26h.27c.64-2.36,1.36-5.72,2-8.26l5.45-21.79h14.8l-10.35,29.24c-6.36,17.62-10.62,24.7-15.62,29.15a25.45,25.45,0,0,1-13.35,6.08l-2.91-11.71a17.41,17.41,0,0,0,6-2.36,15.86,15.86,0,0,0,5.72-5.54,3.6,3.6,0,0,0,.73-2,5,5,0,0,0-.64-2.27l-16.25-40.59Z" transform="translate(-534 -459)"/><path class="cls-2" d="M1268.74,513.87c-.18,2.81-.36,6.54-.36,13.17v24.79c0,8.54-1.73,15.53-6.72,20-4.9,4.18-11.53,5.45-18.07,5.45-5.81,0-12-1.18-16-3.45l2.72-10.44a27.3,27.3,0,0,0,12.89,3.36c6.54,0,11.53-3.54,11.53-11.71V552.1h-.18a14.2,14.2,0,0,1-12,5.81c-11,0-18.8-8.9-18.8-21.7,0-14.26,9.26-23.34,20.16-23.34,6.08,0,9.9,2.63,12.17,6.27h.18l.45-5.27Zm-14.16,18.07a10.91,10.91,0,0,0-.27-2.54c-1-3.63-3.63-6.08-7.45-6.08-5,0-9.08,4.54-9.08,12.62,0,6.63,3.27,11.8,9.08,11.8a7.5,7.5,0,0,0,7.26-5.63,11.74,11.74,0,0,0,.45-3.63Z" transform="translate(-534 -459)"/><path class="cls-2" d="M1279.46,493.8h13.8v25.33h.18a16.57,16.57,0,0,1,5.45-4.54,15.5,15.5,0,0,1,7.17-1.73c8.81,0,15.53,6.08,15.53,19.43v26h-13.8V533.85c0-5.81-2-9.81-7.17-9.81a7.34,7.34,0,0,0-6.9,4.81,8.78,8.78,0,0,0-.45,3.09v26.33h-13.8Z" transform="translate(-534 -459)"/><path class="cls-2" d="M1374.52,544c0,5.81.18,10.53.36,14.26h-12l-.64-6.27H1362a15.84,15.84,0,0,1-13.89,7.26c-9,0-15.62-5.63-15.62-19.34V513.87h13.89v23.88c0,6.45,2.09,10.35,6.9,10.35a7.43,7.43,0,0,0,6.9-4.81,7.71,7.71,0,0,0,.45-3V513.87h13.89Z" transform="translate(-534 -459)"/><path class="cls-2" d="M1385.51,546.2a27,27,0,0,0,11.89,3.36c4.18,0,5.9-1.45,5.9-3.72s-1.36-3.36-6.54-5.08c-9.17-3.09-12.71-8.08-12.62-13.35,0-8.26,7.08-14.53,18.07-14.53a29.78,29.78,0,0,1,12.53,2.54l-2.45,9.53a21.79,21.79,0,0,0-9.62-2.54c-3.36,0-5.27,1.36-5.27,3.63,0,2.09,1.73,3.18,7.17,5.08,8.44,2.91,12,7.17,12.08,13.71,0,8.26-6.54,14.35-19.25,14.35-5.81,0-11-1.27-14.35-3.09Z" transform="translate(-534 -459)"/><path class="cls-2" d="M774.47,584.59V596.9H788.7V584.59h3.84V614H788.7v-13.8H774.47V614h-3.8V584.59Z" transform="translate(-534 -459)"/><path class="cls-2" d="M810.7,614l-.31-2.66h-.13a7.87,7.87,0,0,1-6.46,3.14c-4.28,0-6.46-3-6.46-6.07,0-5.11,4.54-7.9,12.7-7.86v-.44c0-1.75-.48-4.89-4.8-4.89a10.53,10.53,0,0,0-5.5,1.57l-.87-2.53a13.11,13.11,0,0,1,6.94-1.88c6.46,0,8,4.41,8,8.64v7.9a29.75,29.75,0,0,0,.35,5.06Zm-.57-10.78c-4.19-.09-8.95.65-8.95,4.76a3.4,3.4,0,0,0,3.62,3.67,5.26,5.26,0,0,0,5.11-3.54,4,4,0,0,0,.22-1.22Zm-8.25-16.63a4.12,4.12,0,0,1,4.45-4.15,4,4,0,0,1,4.32,4.1,4.1,4.1,0,0,1-4.37,4C803.67,590.57,801.88,588.82,801.88,586.59Zm6.64-.09a2.22,2.22,0,1,0-4.41.09,2.21,2.21,0,1,0,4.41-.09Z" transform="translate(-534 -459)"/><path class="cls-2" d="M820,598.6c0-2.18,0-4-.17-5.72h3.41l.22,3.49h.09a7.77,7.77,0,0,1,7-4c2.93,0,7.47,1.75,7.47,9V614h-3.84V601.83c0-3.41-1.27-6.24-4.89-6.24a5.46,5.46,0,0,0-5.15,3.93,5.53,5.53,0,0,0-.26,1.79V614H820Z" transform="translate(-534 -459)"/><path class="cls-2" d="M862.53,583v25.54c0,1.88,0,4,.17,5.46h-3.45l-.17-3.67H859a7.82,7.82,0,0,1-7.2,4.15c-5.11,0-9-4.32-9-10.74,0-7,4.32-11.35,9.47-11.35a7.06,7.06,0,0,1,6.37,3.23h.09V583Zm-3.84,18.47a6.78,6.78,0,0,0-.17-1.62,5.65,5.65,0,0,0-5.54-4.45c-4,0-6.33,3.49-6.33,8.16,0,4.28,2.1,7.82,6.24,7.82a5.78,5.78,0,0,0,5.63-4.58,6.67,6.67,0,0,0,.17-1.66Z" transform="translate(-534 -459)"/><path class="cls-2" d="M868.73,614c.09-1.44.17-3.58.17-5.46V583h3.8v13.27h.09a7.87,7.87,0,0,1,7.2-3.89c5.24,0,8.95,4.37,8.91,10.78,0,7.55-4.76,11.31-9.47,11.31a7.53,7.53,0,0,1-7.07-4h-.13L872,614Zm4-8.47a7.21,7.21,0,0,0,.17,1.4,5.93,5.93,0,0,0,5.76,4.5c4,0,6.42-3.27,6.42-8.12,0-4.23-2.18-7.86-6.29-7.86a6.12,6.12,0,0,0-5.85,4.72,7.56,7.56,0,0,0-.22,1.57Z" transform="translate(-534 -459)"/><path class="cls-2" d="M893.74,599.47c0-2.49,0-4.63-.17-6.59h3.36l.13,4.15h.17a6.34,6.34,0,0,1,5.85-4.63,4.16,4.16,0,0,1,1.09.13v3.62a5.75,5.75,0,0,0-1.31-.13c-2.71,0-4.63,2.05-5.15,4.93a10.83,10.83,0,0,0-.17,1.79V614h-3.8Z" transform="translate(-534 -459)"/><path class="cls-2" d="M910.51,592.88l4.63,12.49c.48,1.4,1,3.06,1.35,4.32h.09c.39-1.27.83-2.88,1.35-4.41l4.19-12.4h4.06l-5.76,15.06c-2.75,7.25-4.63,11-7.25,13.23a10.41,10.41,0,0,1-4.72,2.49l-1-3.23a10.15,10.15,0,0,0,3.36-1.88,11.65,11.65,0,0,0,3.23-4.28,2.76,2.76,0,0,0,.31-.92,3.35,3.35,0,0,0-.26-1l-7.81-19.47Z" transform="translate(-534 -459)"/><path class="cls-2" d="M947.44,592.88c-.09,1.53-.17,3.23-.17,5.81V611c0,4.85-1,7.82-3,9.65s-5,2.53-7.68,2.53a13.64,13.64,0,0,1-7-1.75l1-2.93a11.92,11.92,0,0,0,6.2,1.66c3.93,0,6.81-2.05,6.81-7.38v-2.36h-.09a7.54,7.54,0,0,1-6.72,3.54c-5.24,0-9-4.45-9-10.3,0-7.16,4.67-11.22,9.52-11.22a7,7,0,0,1,6.59,3.67h.09l.17-3.19Zm-4,8.34a5.48,5.48,0,0,0-.22-1.75,5.53,5.53,0,0,0-5.37-4.06c-3.67,0-6.29,3.1-6.29,8,0,4.15,2.1,7.6,6.24,7.6a5.62,5.62,0,0,0,5.33-3.93,6.68,6.68,0,0,0,.31-2.05Z" transform="translate(-534 -459)"/><path class="cls-2" d="M971.85,592.88c-.09,1.53-.17,3.23-.17,5.81V611c0,4.85-1,7.82-3,9.65s-5,2.53-7.68,2.53a13.64,13.64,0,0,1-7-1.75l1-2.93a11.92,11.92,0,0,0,6.2,1.66c3.93,0,6.81-2.05,6.81-7.38v-2.36h-.09a7.54,7.54,0,0,1-6.72,3.54c-5.24,0-9-4.45-9-10.3,0-7.16,4.67-11.22,9.52-11.22a7,7,0,0,1,6.59,3.67h.09l.17-3.19Zm-4,8.34a5.48,5.48,0,0,0-.22-1.75,5.53,5.53,0,0,0-5.37-4.06c-3.67,0-6.29,3.1-6.29,8,0,4.15,2.1,7.6,6.24,7.6a5.62,5.62,0,0,0,5.33-3.93,6.68,6.68,0,0,0,.31-2.05Z" transform="translate(-534 -459)"/><path class="cls-2" d="M980.18,604.14c.09,5.2,3.41,7.33,7.25,7.33a13.89,13.89,0,0,0,5.85-1.09l.65,2.75a17.12,17.12,0,0,1-7,1.31c-6.5,0-10.39-4.28-10.39-10.65s3.75-11.39,9.91-11.39c6.9,0,8.73,6.07,8.73,10a14.45,14.45,0,0,1-.13,1.79Zm11.26-2.75c0-2.44-1-6.24-5.33-6.24-3.89,0-5.59,3.58-5.89,6.24Z" transform="translate(-534 -459)"/><path class="cls-2" d="M1004.55,586.81v6.07h5.5v2.93h-5.5v11.4c0,2.62.74,4.1,2.88,4.1a8.55,8.55,0,0,0,2.23-.26l.17,2.88a9.41,9.41,0,0,1-3.41.52,5.32,5.32,0,0,1-4.15-1.62c-1.09-1.14-1.48-3-1.48-5.5V595.81h-3.27v-2.93h3.27v-5.06Z" transform="translate(-534 -459)"/><path class="cls-2" d="M1023.1,610.08a10.07,10.07,0,0,0,5.06,1.53c2.79,0,4.1-1.4,4.1-3.14s-1.09-2.84-3.93-3.89c-3.8-1.35-5.59-3.45-5.59-6,0-3.41,2.75-6.2,7.29-6.2a10.54,10.54,0,0,1,5.2,1.31l-1,2.79a8.22,8.22,0,0,0-4.32-1.22c-2.27,0-3.54,1.31-3.54,2.88,0,1.75,1.27,2.53,4,3.58,3.67,1.4,5.54,3.23,5.54,6.37,0,3.71-2.88,6.33-7.9,6.33a12,12,0,0,1-5.94-1.44Z" transform="translate(-534 -459)"/><path class="cls-2" d="M1040.91,599.78c0-2.71-.09-4.89-.17-6.9h3.45l.17,3.62h.09a8.31,8.31,0,0,1,7.51-4.1c5.11,0,8.95,4.32,8.95,10.74,0,7.6-4.63,11.35-9.6,11.35a7.41,7.41,0,0,1-6.51-3.32h-.09v11.48h-3.8Zm3.8,5.63a8.62,8.62,0,0,0,.17,1.57,5.93,5.93,0,0,0,5.76,4.5c4.06,0,6.42-3.32,6.42-8.16,0-4.23-2.23-7.86-6.29-7.86a6.13,6.13,0,0,0-5.81,4.76,6.23,6.23,0,0,0-.26,1.57Z" transform="translate(-534 -459)"/><path class="cls-2" d="M1067.89,604.14c.09,5.2,3.41,7.33,7.25,7.33a13.9,13.9,0,0,0,5.85-1.09l.65,2.75a17.12,17.12,0,0,1-7,1.31c-6.51,0-10.39-4.28-10.39-10.65s3.75-11.39,9.91-11.39c6.9,0,8.73,6.07,8.73,10a14.45,14.45,0,0,1-.13,1.79Zm11.26-2.75c0-2.44-1-6.24-5.33-6.24-3.89,0-5.59,3.58-5.89,6.24Z" transform="translate(-534 -459)"/><path class="cls-2" d="M1102.69,613.22a14.15,14.15,0,0,1-6.07,1.22c-6.37,0-10.52-4.32-10.52-10.78s4.45-11.22,11.35-11.22a12.84,12.84,0,0,1,5.33,1.09l-.87,3a8.91,8.91,0,0,0-4.45-1c-4.85,0-7.47,3.58-7.47,8,0,4.89,3.14,7.9,7.33,7.9a10.91,10.91,0,0,0,4.71-1Z" transform="translate(-534 -459)"/><path class="cls-2" d="M1111.46,586.94a2.38,2.38,0,0,1-4.76,0,2.34,2.34,0,0,1,2.4-2.4A2.28,2.28,0,0,1,1111.46,586.94ZM1107.19,614V592.88H1111V614Z" transform="translate(-534 -459)"/><path class="cls-2" d="M1129.1,614l-.31-2.66h-.13a7.87,7.87,0,0,1-6.46,3.14c-4.28,0-6.46-3-6.46-6.07,0-5.11,4.54-7.9,12.7-7.86v-.44c0-1.75-.48-4.89-4.8-4.89a10.53,10.53,0,0,0-5.5,1.57l-.87-2.53a13.11,13.11,0,0,1,6.94-1.88c6.46,0,8,4.41,8,8.64v7.9a29.75,29.75,0,0,0,.35,5.06Zm-.57-10.78c-4.19-.09-8.95.65-8.95,4.76a3.4,3.4,0,0,0,3.62,3.67,5.26,5.26,0,0,0,5.11-3.54,4,4,0,0,0,.22-1.22Z" transform="translate(-534 -459)"/><path class="cls-2" d="M1138.44,583h3.84v31h-3.84Z" transform="translate(-534 -459)"/><path class="cls-2" d="M1163,593.93l1.83-2.62,1.7,1.18-1.83,2.71a11,11,0,0,1,3.19,8.08c0,7.77-5.37,11.22-10.3,11.22a9.89,9.89,0,0,1-5.41-1.48l-1.88,2.66-1.62-1.31,1.83-2.62a10.86,10.86,0,0,1-3.27-8.16c0-7,4.63-11.18,10.39-11.18A10,10,0,0,1,1163,593.93Zm-1.75,2.62a5.69,5.69,0,0,0-3.71-1.27c-4.72,0-6.59,4.37-6.59,8.21a9.15,9.15,0,0,0,1.57,5.28l.09,0Zm-7.33,13.84a5.22,5.22,0,0,0,3.54,1.22c4,0,6.68-3.45,6.68-8.21a9.45,9.45,0,0,0-1.48-5.15h-.09Z" transform="translate(-534 -459)"/><path class="cls-2" d="M1172.72,583h3.84v31h-3.84Z" transform="translate(-534 -459)"/><path class="cls-2" d="M1192.67,614V595.81h-3v-2.93h3v-1c0-3,.65-5.68,2.44-7.38a7.35,7.35,0,0,1,5.15-2,8.9,8.9,0,0,1,3.27.61l-.52,3a5.73,5.73,0,0,0-2.44-.48c-3.27,0-4.1,2.88-4.1,6.11v1.14h5.11v2.93h-5.11V614Z" transform="translate(-534 -459)"/><path class="cls-2" d="M1205,599.47c0-2.49,0-4.63-.17-6.59h3.36l.13,4.15h.17a6.34,6.34,0,0,1,5.85-4.63,4.16,4.16,0,0,1,1.09.13v3.62a5.75,5.75,0,0,0-1.31-.13c-2.71,0-4.63,2.05-5.15,4.93a10.77,10.77,0,0,0-.17,1.79V614H1205Z" transform="translate(-534 -459)"/><path class="cls-2" d="M1230.78,614l-.31-2.66h-.13a7.87,7.87,0,0,1-6.46,3.14c-4.28,0-6.46-3-6.46-6.07,0-5.11,4.54-7.9,12.7-7.86v-.44c0-1.75-.48-4.89-4.8-4.89a10.53,10.53,0,0,0-5.5,1.57l-.87-2.53a13.11,13.11,0,0,1,6.94-1.88c6.46,0,8,4.41,8,8.64v7.9a29.75,29.75,0,0,0,.35,5.06Zm-.57-10.78c-4.19-.09-8.95.65-8.95,4.76a3.4,3.4,0,0,0,3.62,3.67,5.26,5.26,0,0,0,5.11-3.54,4,4,0,0,0,.22-1.22Z" transform="translate(-534 -459)"/><path class="cls-2" d="M1249.51,585a54.35,54.35,0,0,1,8.08-.61c5.46,0,9.34,1.27,11.92,3.67s4.15,5.81,4.15,10.56-1.48,8.73-4.24,11.44-7.29,4.24-13,4.24a61.35,61.35,0,0,1-6.9-.35Zm3.8,26a24,24,0,0,0,3.84.22c8.12,0,12.53-4.54,12.53-12.49,0-6.94-3.89-11.35-11.92-11.35a21.55,21.55,0,0,0-4.45.39Z" transform="translate(-534 -459)"/><path class="cls-2" d="M1273.52,620.12a6.22,6.22,0,0,0,4.19-1.62c1-1.22,1.44-2.88,1.44-7.95V592.88H1283V612c0,4.1-.65,6.77-2.53,8.69a9.75,9.75,0,0,1-6.55,2.4Zm9.91-33.18a2.26,2.26,0,0,1-2.4,2.36,2.29,2.29,0,0,1-2.36-2.36,2.35,2.35,0,0,1,2.44-2.4A2.27,2.27,0,0,1,1283.43,586.94Z" transform="translate(-534 -459)"/><path class="cls-2" d="M1307,608.25c0,2.18,0,4.1.17,5.76h-3.41l-.22-3.45h-.09a8,8,0,0,1-7,3.93c-3.32,0-7.29-1.83-7.29-9.26V592.88H1293v11.7c0,4,1.22,6.72,4.72,6.72a5.56,5.56,0,0,0,5.06-3.49,5.62,5.62,0,0,0,.35-2v-13H1307Z" transform="translate(-534 -459)"/><path class="cls-2" d="M1313.34,599.47c0-2.49,0-4.63-.17-6.59h3.36l.13,4.15h.17a6.34,6.34,0,0,1,5.85-4.63,4.16,4.16,0,0,1,1.09.13v3.62a5.75,5.75,0,0,0-1.31-.13c-2.71,0-4.63,2.05-5.15,4.93a10.77,10.77,0,0,0-.17,1.79V614h-3.8Z" transform="translate(-534 -459)"/><path class="cls-2" d="M1327.09,610.08a10.07,10.07,0,0,0,5.06,1.53c2.79,0,4.1-1.4,4.1-3.14s-1.09-2.84-3.93-3.89c-3.8-1.35-5.59-3.45-5.59-6,0-3.41,2.75-6.2,7.29-6.2a10.54,10.54,0,0,1,5.2,1.31l-1,2.79a8.22,8.22,0,0,0-4.32-1.22c-2.27,0-3.54,1.31-3.54,2.88,0,1.75,1.27,2.53,4,3.58,3.67,1.4,5.54,3.23,5.54,6.37,0,3.71-2.88,6.33-7.9,6.33a12,12,0,0,1-5.94-1.44Z" transform="translate(-534 -459)"/><path class="cls-2" d="M1344.9,583h3.84v31h-3.84Z" transform="translate(-534 -459)"/><path class="cls-2" d="M1366.91,614l-.31-2.66h-.13a7.87,7.87,0,0,1-6.46,3.14c-4.28,0-6.46-3-6.46-6.07,0-5.11,4.54-7.9,12.7-7.86v-.44c0-1.75-.48-4.89-4.8-4.89a10.53,10.53,0,0,0-5.5,1.57l-.87-2.53a13.11,13.11,0,0,1,6.94-1.88c6.46,0,8,4.41,8,8.64v7.9a29.75,29.75,0,0,0,.35,5.06Zm-.57-10.78c-4.19-.09-8.95.65-8.95,4.76a3.4,3.4,0,0,0,3.62,3.67,5.26,5.26,0,0,0,5.11-3.54,4,4,0,0,0,.22-1.22Z" transform="translate(-534 -459)"/><path class="cls-2" d="M1376.25,598.6c0-2.18,0-4-.17-5.72h3.41l.22,3.49h.09a7.77,7.77,0,0,1,7-4c2.93,0,7.47,1.75,7.47,9V614h-3.84V601.83c0-3.41-1.27-6.24-4.89-6.24a5.46,5.46,0,0,0-5.15,3.93,5.52,5.52,0,0,0-.26,1.79V614h-3.84Z" transform="translate(-534 -459)"/><path class="cls-2" d="M1418.73,583v25.54c0,1.88,0,4,.17,5.46h-3.45l-.17-3.67h-.09a7.82,7.82,0,0,1-7.2,4.15c-5.11,0-9-4.32-9-10.74,0-7,4.32-11.35,9.47-11.35a7.06,7.06,0,0,1,6.37,3.23h.09V583Zm-3.84,18.47a6.78,6.78,0,0,0-.17-1.62,5.65,5.65,0,0,0-5.54-4.45c-4,0-6.33,3.49-6.33,8.16,0,4.28,2.1,7.82,6.24,7.82a5.78,5.78,0,0,0,5.63-4.58,6.67,6.67,0,0,0,.17-1.66Z" transform="translate(-534 -459)"/><path class="cls-2" d="M583.72,577.49v23.17c23.95,29.1,113.3,19.06,121.28,0v-22.4C686.47,588.82,617.72,597.83,583.72,577.49Zm7.21,22.66c-2.24,0-4.05-3-4.05-6.7s1.81-6.69,4.05-6.69,4.05,3,4.05,6.69S593.18,600.15,590.93,600.15Zm23,9c-3.2,0-5.79-3-5.79-6.69s2.59-6.69,5.79-6.69,5.79,3,5.79,6.69S617.18,609.16,614,609.16Zm30.13,2.32a6.7,6.7,0,1,1,6.69-6.69A6.69,6.69,0,0,1,644.11,611.48Zm30.64-2.32c-3.2,0-5.79-3-5.79-6.69s2.6-6.69,5.79-6.69,5.79,3,5.79,6.69S678,609.16,674.75,609.16Zm22.92-8.24c-2.24,0-4.06-3-4.06-6.7s1.82-6.69,4.06-6.69,4.05,3,4.05,6.69S699.91,600.92,697.67,600.92Z" transform="translate(-534 -459)"/><path class="cls-2" d="M663.55,518.67v65.79s28.07-1.42,40.17-12c.26-3.86.26-3.35-5.15-17,46.61-12.36,44-65.66,44-65.66s-.26-6.69-4.64-1.54c-1.8,2.32-11.07,40.94-55.36,43.52C680,524.85,672.82,519.44,663.55,518.67Z" transform="translate(-534 -459)"/><path class="cls-2" d="M625.08,518.67v65.79s-28.07-1.42-40.17-12c-.26-3.86-.26-3.35,5.15-17-46.61-12.36-44-65.66-44-65.66s.26-6.7,4.64-1.54c1.8,2.32,11.07,40.94,55.36,43.52C608.6,524.84,615.81,519.44,625.08,518.67Z" transform="translate(-534 -459)"/><path class="cls-2" d="M629.59,514.21v70.25s9.66.39,14.29.39,14.55-.39,14.55-.39V514.21C658.43,503.93,629.59,503.93,629.59,514.21ZM644,576.27a6.18,6.18,0,1,1,6.18-6.18A6.18,6.18,0,0,1,644,576.27Zm0-24.53a6.18,6.18,0,1,1,6.18-6.18A6.18,6.18,0,0,1,644,551.74Zm0-24.53a6.18,6.18,0,1,1,6.18-6.18A6.18,6.18,0,0,1,644,527.21Z" transform="translate(-534 -459)"/></svg>