<svg id="Lag_1" data-name="Lag 1" xmlns="http://www.w3.org/2000/svg" viewBox="0 0 1105.19 162.5"><defs><style>.cls-1{fill:#fff;}.cls-2{fill:#5f5f60;}</style></defs><title>logolille</title><polygon class="cls-1" points="0 0 0 162.07 7 162.15 959.12 162.5 1105.19 0 6 0 0 0"/><path class="cls-2" d="M590.57,504.28h13.29v47.44h23.28v11.12H590.57Z" transform="translate(-307 -475)"/><path class="cls-2" d="M641.31,520.35l6.34,20.85c.69,2.52,1.56,5.65,2.08,7.91H650c.61-2.26,1.3-5.47,1.91-7.91l5.21-20.85h14.16l-9.9,28c-6.08,16.85-10.16,23.63-14.94,27.89A24.35,24.35,0,0,1,633.66,582l-2.78-11.21a16.65,16.65,0,0,0,5.73-2.26,15.17,15.17,0,0,0,5.47-5.3,3.44,3.44,0,0,0,.69-1.91,4.8,4.8,0,0,0-.61-2.17l-15.55-38.84Z" transform="translate(-307 -475)"/><path class="cls-2" d="M676.84,533.9c0-5.3-.17-9.82-.35-13.55H688l.61,5.82h.26a15.55,15.55,0,0,1,13.12-6.78c8.69,0,15.2,5.73,15.2,18.24v25.2H703.95V539.29c0-5.47-1.91-9.21-6.69-9.21a7,7,0,0,0-6.69,5,9.07,9.07,0,0,0-.52,3.3v24.5H676.84Z" transform="translate(-307 -475)"/><path class="cls-2" d="M768.33,520.35c-.17,2.69-.35,6.26-.35,12.6v23.72c0,8.17-1.65,14.86-6.43,19.11-4.69,4-11,5.21-17.29,5.21-5.56,0-11.47-1.13-15.29-3.3l2.61-10a26.12,26.12,0,0,0,12.34,3.21c6.26,0,11-3.39,11-11.21v-2.78h-.17a13.59,13.59,0,0,1-11.47,5.56c-10.51,0-18-8.51-18-20.76,0-13.64,8.86-22.33,19.29-22.33,5.82,0,9.47,2.52,11.64,6h.17l.43-5Zm-13.55,17.29a10.45,10.45,0,0,0-.26-2.43c-1-3.48-3.48-5.82-7.12-5.82-4.78,0-8.69,4.34-8.69,12.08,0,6.34,3.13,11.29,8.69,11.29a7.17,7.17,0,0,0,7-5.39,11.22,11.22,0,0,0,.43-3.48Z" transform="translate(-307 -475)"/><path class="cls-2" d="M778.23,562.83c.17-2.78.35-7.91.35-12.68v-49h13.21v24.24H792c2.52-3.65,7-6,12.86-6,10.16,0,17.64,8.43,17.55,21.46,0,15.29-9.73,22.94-19.46,22.94-5,0-9.73-1.82-12.77-6.86H790l-.52,5.91Zm13.55-18.07a9.7,9.7,0,0,0,.26,2.35,8,8,0,0,0,7.73,6.26c5.65,0,9.12-4.34,9.12-12,0-6.6-3-11.82-9.12-11.82a8.18,8.18,0,0,0-7.73,6.52,11,11,0,0,0-.26,2.43Z" transform="translate(-307 -475)"/><path class="cls-2" d="M839.66,520.35,846,541.2c.69,2.52,1.56,5.65,2.09,7.91h.26c.61-2.26,1.3-5.47,1.91-7.91l5.21-20.85h14.16l-9.9,28c-6.08,16.85-10.16,23.63-14.94,27.89A24.35,24.35,0,0,1,832,582l-2.78-11.21a16.66,16.66,0,0,0,5.73-2.26,15.17,15.17,0,0,0,5.47-5.3,3.45,3.45,0,0,0,.69-1.91,4.8,4.8,0,0,0-.61-2.17L825,520.35Z" transform="translate(-307 -475)"/><path class="cls-2" d="M893.17,505.06a105.48,105.48,0,0,1,17.12-1.22c8.08,0,13,.78,17.29,3.3a12.75,12.75,0,0,1,7,11.47c0,5.21-3,10.08-9.64,12.51v.17c6.69,1.82,11.64,6.86,11.64,14.42a15.6,15.6,0,0,1-6.08,12.42c-4.26,3.39-11.38,5.3-23,5.3a102.45,102.45,0,0,1-14.33-.87Zm13.12,22.41h4.34c7,0,10.69-2.87,10.69-7.21s-3.39-6.78-9.38-6.78a36.14,36.14,0,0,0-5.65.35Zm0,26a41.75,41.75,0,0,0,5.13.17c6,0,11.29-2.26,11.29-8.43,0-5.91-5.3-8.25-11.9-8.25h-4.52Z" transform="translate(-307 -475)"/><path class="cls-2" d="M945.21,534.34c0-6.26-.17-10.34-.35-14h11.38l.43,7.82H957c2.17-6.17,7.38-8.77,11.47-8.77a13.62,13.62,0,0,1,2.78.17V532a18.92,18.92,0,0,0-3.56-.35c-4.87,0-8.17,2.61-9,6.69a15.56,15.56,0,0,0-.26,3v21.55H945.21Z" transform="translate(-307 -475)"/><path class="cls-2" d="M989.7,520.35,996,541.2c.69,2.52,1.56,5.65,2.08,7.91h.26c.61-2.26,1.3-5.47,1.91-7.91l5.21-20.85h14.16l-9.9,28c-6.08,16.85-10.16,23.63-14.94,27.89A24.35,24.35,0,0,1,982.05,582l-2.78-11.21a16.66,16.66,0,0,0,5.73-2.26,15.18,15.18,0,0,0,5.47-5.3,3.45,3.45,0,0,0,.69-1.91,4.8,4.8,0,0,0-.61-2.17L975,520.35Z" transform="translate(-307 -475)"/><path class="cls-2" d="M1064.59,520.35c-.17,2.69-.35,6.26-.35,12.6v23.72c0,8.17-1.65,14.86-6.43,19.11-4.69,4-11,5.21-17.29,5.21-5.56,0-11.47-1.13-15.29-3.3l2.61-10a26.12,26.12,0,0,0,12.34,3.21c6.26,0,11-3.39,11-11.21v-2.78H1051a13.59,13.59,0,0,1-11.47,5.56c-10.51,0-18-8.51-18-20.76,0-13.64,8.86-22.33,19.29-22.33,5.82,0,9.47,2.52,11.64,6h.17l.43-5ZM1051,537.64a10.44,10.44,0,0,0-.26-2.43c-1-3.48-3.48-5.82-7.12-5.82-4.78,0-8.69,4.34-8.69,12.08,0,6.34,3.13,11.29,8.69,11.29a7.17,7.17,0,0,0,7-5.39,11.23,11.23,0,0,0,.43-3.48Z" transform="translate(-307 -475)"/><path class="cls-2" d="M1074.84,501.15H1088v24.24h.17a15.86,15.86,0,0,1,5.21-4.34,14.83,14.83,0,0,1,6.86-1.65c8.43,0,14.86,5.82,14.86,18.59v24.85h-13.21V539.46c0-5.56-1.91-9.38-6.86-9.38a7,7,0,0,0-6.6,4.6,8.4,8.4,0,0,0-.43,3v25.2h-13.21Z" transform="translate(-307 -475)"/><path class="cls-2" d="M1165.8,549.19c0,5.56.17,10.08.35,13.64h-11.47l-.61-6h-.26a15.15,15.15,0,0,1-13.29,7c-8.6,0-14.94-5.39-14.94-18.51V520.35h13.29V543.2c0,6.17,2,9.9,6.6,9.9a7.11,7.11,0,0,0,6.6-4.6,7.37,7.37,0,0,0,.43-2.87V520.35h13.29Z" transform="translate(-307 -475)"/><path class="cls-2" d="M1176.32,551.28a25.82,25.82,0,0,0,11.38,3.21c4,0,5.65-1.39,5.65-3.56s-1.3-3.21-6.26-4.87c-8.78-3-12.16-7.73-12.08-12.77,0-7.91,6.78-13.9,17.29-13.9a28.5,28.5,0,0,1,12,2.43l-2.35,9.12a20.85,20.85,0,0,0-9.21-2.43c-3.21,0-5,1.3-5,3.48,0,2,1.65,3,6.86,4.87,8.08,2.78,11.47,6.86,11.55,13.12,0,7.91-6.26,13.73-18.42,13.73a30.08,30.08,0,0,1-13.73-3Z" transform="translate(-307 -475)"/><path class="cls-2" d="M591.64,588v11.78h13.62V588h3.68v28.16h-3.68V603H591.64v13.2H588V588Z" transform="translate(-307 -475)"/><path class="cls-2" d="M626.32,616.17l-.29-2.55h-.13a7.53,7.53,0,0,1-6.18,3c-4.09,0-6.18-2.88-6.18-5.81,0-4.89,4.34-7.56,12.16-7.52v-.42c0-1.67-.46-4.68-4.6-4.68a10.08,10.08,0,0,0-5.26,1.5l-.84-2.42a12.55,12.55,0,0,1,6.64-1.8c6.18,0,7.69,4.22,7.69,8.27v7.56a28.47,28.47,0,0,0,.33,4.85Zm-.54-10.32c-4-.08-8.56.63-8.56,4.55a3.25,3.25,0,0,0,3.47,3.51,5,5,0,0,0,4.89-3.38,3.83,3.83,0,0,0,.21-1.17Zm-7.9-15.92a3.94,3.94,0,0,1,4.26-4,3.88,3.88,0,0,1,4.14,3.93,4.22,4.22,0,0,1-8.4,0Zm6.35-.08a2.12,2.12,0,1,0-4.22.08,2.12,2.12,0,1,0,4.22-.08Z" transform="translate(-307 -475)"/><path class="cls-2" d="M635.26,601.42c0-2.09,0-3.8-.17-5.47h3.26l.21,3.34h.08a7.44,7.44,0,0,1,6.68-3.8c2.8,0,7.14,1.67,7.14,8.61v12.07h-3.68V604.51c0-3.26-1.21-6-4.68-6a5.22,5.22,0,0,0-4.93,3.76,5.29,5.29,0,0,0-.25,1.71v12.16h-3.68Z" transform="translate(-307 -475)"/><path class="cls-2" d="M675.9,586.51v24.44c0,1.8,0,3.84.17,5.22h-3.3l-.17-3.51h-.08a7.48,7.48,0,0,1-6.89,4c-4.89,0-8.65-4.14-8.65-10.28,0-6.73,4.14-10.86,9.06-10.86a6.76,6.76,0,0,1,6.1,3.09h.08V586.51Zm-3.68,17.67a6.49,6.49,0,0,0-.17-1.55,5.41,5.41,0,0,0-5.31-4.26c-3.8,0-6.06,3.34-6.06,7.81,0,4.09,2,7.48,6,7.48a5.53,5.53,0,0,0,5.39-4.39,6.39,6.39,0,0,0,.17-1.59Z" transform="translate(-307 -475)"/><path class="cls-2" d="M681.83,616.17c.08-1.38.17-3.43.17-5.22V586.51h3.63v12.7h.08a7.53,7.53,0,0,1,6.89-3.72c5,0,8.56,4.18,8.52,10.32,0,7.23-4.55,10.82-9.06,10.82a7.2,7.2,0,0,1-6.77-3.8h-.13l-.17,3.34Zm3.8-8.1a6.9,6.9,0,0,0,.17,1.34,5.67,5.67,0,0,0,5.51,4.3c3.84,0,6.14-3.13,6.14-7.77,0-4.05-2.09-7.52-6-7.52a5.86,5.86,0,0,0-5.6,4.51,7.24,7.24,0,0,0-.21,1.5Z" transform="translate(-307 -475)"/><path class="cls-2" d="M705.77,602.26c0-2.38,0-4.43-.17-6.31h3.22l.13,4h.17a6.07,6.07,0,0,1,5.6-4.43,4,4,0,0,1,1,.13v3.47a5.5,5.5,0,0,0-1.25-.13c-2.59,0-4.43,2-4.93,4.72a10.36,10.36,0,0,0-.17,1.71v10.78h-3.63Z" transform="translate(-307 -475)"/><path class="cls-2" d="M721.81,595.95l4.43,11.95c.46,1.34,1,2.92,1.3,4.14h.08c.38-1.21.79-2.76,1.3-4.22l4-11.86h3.88l-5.51,14.41c-2.63,6.93-4.43,10.49-6.93,12.66a10,10,0,0,1-4.51,2.38l-.92-3.09a9.71,9.71,0,0,0,3.22-1.8,11.14,11.14,0,0,0,3.09-4.09,2.64,2.64,0,0,0,.29-.88,3.21,3.21,0,0,0-.25-1l-7.48-18.63Z" transform="translate(-307 -475)"/><path class="cls-2" d="M757.15,595.95c-.08,1.46-.17,3.09-.17,5.56v11.74c0,4.64-.92,7.48-2.88,9.23a10.72,10.72,0,0,1-7.35,2.42,13,13,0,0,1-6.73-1.67l.92-2.8a11.4,11.4,0,0,0,5.93,1.59c3.76,0,6.52-2,6.52-7.06V612.7h-.08a7.22,7.22,0,0,1-6.43,3.38c-5,0-8.61-4.26-8.61-9.86,0-6.85,4.47-10.74,9.11-10.74a6.72,6.72,0,0,1,6.31,3.51h.08l.17-3Zm-3.8,8a5.24,5.24,0,0,0-.21-1.67,5.3,5.3,0,0,0-5.14-3.88c-3.51,0-6,3-6,7.65,0,4,2,7.27,6,7.27a5.37,5.37,0,0,0,5.1-3.76,6.39,6.39,0,0,0,.29-2Z" transform="translate(-307 -475)"/><path class="cls-2" d="M780.5,595.95c-.08,1.46-.17,3.09-.17,5.56v11.74c0,4.64-.92,7.48-2.88,9.23a10.72,10.72,0,0,1-7.35,2.42,13,13,0,0,1-6.73-1.67l.92-2.8a11.4,11.4,0,0,0,5.93,1.59c3.76,0,6.52-2,6.52-7.06V612.7h-.08a7.22,7.22,0,0,1-6.43,3.38c-5,0-8.61-4.26-8.61-9.86,0-6.85,4.47-10.74,9.11-10.74A6.72,6.72,0,0,1,777,599h.08l.17-3Zm-3.8,8a5.24,5.24,0,0,0-.21-1.67,5.3,5.3,0,0,0-5.14-3.88c-3.51,0-6,3-6,7.65,0,4,2,7.27,6,7.27a5.37,5.37,0,0,0,5.1-3.76,6.39,6.39,0,0,0,.29-2Z" transform="translate(-307 -475)"/><path class="cls-2" d="M788.48,606.73c.08,5,3.26,7,6.93,7a13.29,13.29,0,0,0,5.6-1l.63,2.63a16.38,16.38,0,0,1-6.73,1.25c-6.22,0-9.94-4.09-9.94-10.19s3.59-10.9,9.48-10.9c6.6,0,8.35,5.81,8.35,9.52a13.83,13.83,0,0,1-.13,1.71Zm10.78-2.63c0-2.34-1-6-5.1-6-3.72,0-5.35,3.43-5.64,6Z" transform="translate(-307 -475)"/><path class="cls-2" d="M811.79,590.14v5.81h5.26v2.8h-5.26v10.9c0,2.51.71,3.93,2.76,3.93a8.18,8.18,0,0,0,2.13-.25l.17,2.76a9,9,0,0,1-3.26.5,5.09,5.09,0,0,1-4-1.55c-1-1.09-1.42-2.88-1.42-5.26v-11h-3.13v-2.8h3.13V591.1Z" transform="translate(-307 -475)"/><path class="cls-2" d="M829.55,612.41a9.63,9.63,0,0,0,4.85,1.46c2.67,0,3.93-1.34,3.93-3s-1-2.72-3.76-3.72c-3.63-1.29-5.35-3.3-5.35-5.72,0-3.26,2.63-5.93,7-5.93a10.09,10.09,0,0,1,5,1.25l-.92,2.67a7.87,7.87,0,0,0-4.14-1.17c-2.17,0-3.38,1.25-3.38,2.76,0,1.67,1.21,2.42,3.84,3.43,3.51,1.34,5.31,3.09,5.31,6.1,0,3.55-2.76,6.06-7.56,6.06a11.53,11.53,0,0,1-5.68-1.38Z" transform="translate(-307 -475)"/><path class="cls-2" d="M846.59,602.55c0-2.59-.08-4.68-.17-6.6h3.3l.17,3.47H850a8,8,0,0,1,7.19-3.93c4.89,0,8.56,4.14,8.56,10.28,0,7.27-4.43,10.86-9.19,10.86a7.09,7.09,0,0,1-6.22-3.17h-.08v11h-3.63Zm3.63,5.39a8.24,8.24,0,0,0,.17,1.5,5.67,5.67,0,0,0,5.51,4.3c3.88,0,6.14-3.17,6.14-7.81,0-4.05-2.13-7.52-6-7.52a5.87,5.87,0,0,0-5.56,4.55,6,6,0,0,0-.25,1.5Z" transform="translate(-307 -475)"/><path class="cls-2" d="M872.41,606.73c.08,5,3.26,7,6.93,7a13.3,13.3,0,0,0,5.6-1l.63,2.63a16.38,16.38,0,0,1-6.73,1.25c-6.22,0-9.94-4.09-9.94-10.19s3.59-10.9,9.48-10.9c6.6,0,8.35,5.81,8.35,9.52a13.83,13.83,0,0,1-.13,1.71Zm10.78-2.63c0-2.34-1-6-5.1-6-3.72,0-5.35,3.43-5.64,6Z" transform="translate(-307 -475)"/><path class="cls-2" d="M905.7,615.42a13.54,13.54,0,0,1-5.81,1.17c-6.1,0-10.07-4.14-10.07-10.32s4.26-10.74,10.86-10.74a12.29,12.29,0,0,1,5.1,1l-.84,2.84a8.52,8.52,0,0,0-4.26-1c-4.64,0-7.14,3.43-7.14,7.64,0,4.68,3,7.56,7,7.56a10.44,10.44,0,0,0,4.51-1Z" transform="translate(-307 -475)"/><path class="cls-2" d="M914.1,590.27a2.28,2.28,0,0,1-4.55,0,2.24,2.24,0,0,1,2.3-2.3A2.18,2.18,0,0,1,914.1,590.27ZM910,616.17V595.95h3.68v20.22Z" transform="translate(-307 -475)"/><path class="cls-2" d="M931,616.17l-.29-2.55h-.13a7.53,7.53,0,0,1-6.18,3c-4.09,0-6.18-2.88-6.18-5.81,0-4.89,4.34-7.56,12.16-7.52v-.42c0-1.67-.46-4.68-4.6-4.68a10.08,10.08,0,0,0-5.26,1.5l-.84-2.42a12.55,12.55,0,0,1,6.64-1.8c6.18,0,7.69,4.22,7.69,8.27v7.56a28.47,28.47,0,0,0,.33,4.85Zm-.54-10.32c-4-.08-8.56.63-8.56,4.55a3.25,3.25,0,0,0,3.47,3.51,5,5,0,0,0,4.89-3.38,3.83,3.83,0,0,0,.21-1.17Z" transform="translate(-307 -475)"/><path class="cls-2" d="M939.91,586.51h3.68v29.66h-3.68Z" transform="translate(-307 -475)"/><path class="cls-2" d="M963.39,597l1.75-2.51,1.63,1.13L965,598.16a10.48,10.48,0,0,1,3,7.73c0,7.44-5.14,10.74-9.86,10.74a9.46,9.46,0,0,1-5.18-1.42l-1.8,2.55-1.55-1.25,1.75-2.51a10.39,10.39,0,0,1-3.13-7.81c0-6.73,4.43-10.69,9.94-10.69A9.56,9.56,0,0,1,963.39,597Zm-1.67,2.51a5.44,5.44,0,0,0-3.55-1.21c-4.51,0-6.31,4.18-6.31,7.85a8.75,8.75,0,0,0,1.5,5.05l.08,0Zm-7,13.24a5,5,0,0,0,3.38,1.17c3.84,0,6.39-3.3,6.39-7.85a9,9,0,0,0-1.42-4.93H963Z" transform="translate(-307 -475)"/><path class="cls-2" d="M972.7,586.51h3.68v29.66H972.7Z" transform="translate(-307 -475)"/><path class="cls-2" d="M991.8,616.17V598.75H989v-2.8h2.84v-1c0-2.84.63-5.43,2.34-7.06a7,7,0,0,1,4.93-1.88,8.52,8.52,0,0,1,3.13.58l-.5,2.84a5.49,5.49,0,0,0-2.34-.46c-3.13,0-3.93,2.76-3.93,5.85v1.09h4.89v2.8h-4.89v17.42Z" transform="translate(-307 -475)"/><path class="cls-2" d="M1003.62,602.26c0-2.38,0-4.43-.17-6.31h3.22l.13,4h.17a6.07,6.07,0,0,1,5.6-4.43,4,4,0,0,1,1,.13v3.47a5.5,5.5,0,0,0-1.25-.13c-2.59,0-4.43,2-4.93,4.72a10.31,10.31,0,0,0-.17,1.71v10.78h-3.63Z" transform="translate(-307 -475)"/><path class="cls-2" d="M1028.26,616.17l-.29-2.55h-.13a7.53,7.53,0,0,1-6.18,3c-4.09,0-6.18-2.88-6.18-5.81,0-4.89,4.34-7.56,12.16-7.52v-.42c0-1.67-.46-4.68-4.6-4.68a10.08,10.08,0,0,0-5.26,1.5l-.84-2.42a12.55,12.55,0,0,1,6.64-1.8c6.18,0,7.69,4.22,7.69,8.27v7.56a28.47,28.47,0,0,0,.33,4.85Zm-.54-10.32c-4-.08-8.56.63-8.56,4.55a3.25,3.25,0,0,0,3.47,3.51,5,5,0,0,0,4.89-3.38,3.83,3.83,0,0,0,.21-1.17Z" transform="translate(-307 -475)"/><path class="cls-2" d="M1046.18,588.39a52,52,0,0,1,7.73-.59c5.22,0,8.94,1.21,11.4,3.51s4,5.56,4,10.11-1.42,8.36-4.05,10.94-7,4.05-12.45,4.05a58.7,58.7,0,0,1-6.6-.33Zm3.63,24.9a23,23,0,0,0,3.68.21c7.77,0,12-4.34,12-11.95,0-6.64-3.72-10.86-11.4-10.86a20.62,20.62,0,0,0-4.26.38Z" transform="translate(-307 -475)"/><path class="cls-2" d="M1069.16,622a6,6,0,0,0,4-1.55c1-1.17,1.38-2.76,1.38-7.6V595.95h3.68v18.34c0,3.93-.63,6.48-2.42,8.31a9.33,9.33,0,0,1-6.27,2.3Zm9.48-31.75a2.16,2.16,0,0,1-2.3,2.26,2.2,2.2,0,0,1-2.26-2.26,2.25,2.25,0,0,1,2.34-2.3A2.17,2.17,0,0,1,1078.64,590.27Z" transform="translate(-307 -475)"/><path class="cls-2" d="M1101.16,610.65c0,2.09,0,3.93.17,5.51h-3.26l-.21-3.3h-.08a7.61,7.61,0,0,1-6.68,3.76c-3.17,0-7-1.75-7-8.86V595.95h3.68v11.2c0,3.84,1.17,6.43,4.51,6.43a5.32,5.32,0,0,0,4.85-3.34,5.38,5.38,0,0,0,.33-1.88V595.95h3.68Z" transform="translate(-307 -475)"/><path class="cls-2" d="M1107.26,602.26c0-2.38,0-4.43-.17-6.31h3.22l.13,4h.17a6.07,6.07,0,0,1,5.6-4.43,4,4,0,0,1,1,.13v3.47A5.5,5.5,0,0,0,1116,599c-2.59,0-4.43,2-4.93,4.72a10.31,10.31,0,0,0-.17,1.71v10.78h-3.63Z" transform="translate(-307 -475)"/><path class="cls-2" d="M1120.42,612.41a9.63,9.63,0,0,0,4.85,1.46c2.67,0,3.93-1.34,3.93-3s-1-2.72-3.76-3.72c-3.63-1.29-5.35-3.3-5.35-5.72,0-3.26,2.63-5.93,7-5.93a10.09,10.09,0,0,1,5,1.25l-.92,2.67a7.87,7.87,0,0,0-4.14-1.17c-2.17,0-3.38,1.25-3.38,2.76,0,1.67,1.21,2.42,3.84,3.43,3.51,1.34,5.31,3.09,5.31,6.1,0,3.55-2.76,6.06-7.56,6.06a11.53,11.53,0,0,1-5.68-1.38Z" transform="translate(-307 -475)"/><path class="cls-2" d="M1137.46,586.51h3.68v29.66h-3.68Z" transform="translate(-307 -475)"/><path class="cls-2" d="M1158.51,616.17l-.29-2.55h-.13a7.53,7.53,0,0,1-6.18,3c-4.09,0-6.18-2.88-6.18-5.81,0-4.89,4.34-7.56,12.16-7.52v-.42c0-1.67-.46-4.68-4.6-4.68a10.08,10.08,0,0,0-5.26,1.5l-.84-2.42a12.55,12.55,0,0,1,6.64-1.8c6.18,0,7.69,4.22,7.69,8.27v7.56a28.47,28.47,0,0,0,.33,4.85Zm-.54-10.32c-4-.08-8.56.63-8.56,4.55a3.25,3.25,0,0,0,3.47,3.51,5,5,0,0,0,4.89-3.38,3.83,3.83,0,0,0,.21-1.17Z" transform="translate(-307 -475)"/><path class="cls-2" d="M1167.45,601.42c0-2.09,0-3.8-.17-5.47h3.26l.21,3.34h.08a7.44,7.44,0,0,1,6.68-3.8c2.8,0,7.14,1.67,7.14,8.61v12.07H1181V604.51c0-3.26-1.21-6-4.68-6a5.22,5.22,0,0,0-4.93,3.76,5.28,5.28,0,0,0-.25,1.71v12.16h-3.68Z" transform="translate(-307 -475)"/><path class="cls-2" d="M1208.1,586.51v24.44c0,1.8,0,3.84.17,5.22H1205l-.17-3.51h-.08a7.48,7.48,0,0,1-6.89,4c-4.89,0-8.65-4.14-8.65-10.28,0-6.73,4.14-10.86,9.06-10.86a6.76,6.76,0,0,1,6.1,3.09h.08V586.51Zm-3.68,17.67a6.49,6.49,0,0,0-.17-1.55,5.41,5.41,0,0,0-5.31-4.26c-3.8,0-6.06,3.34-6.06,7.81,0,4.09,2,7.48,6,7.48a5.53,5.53,0,0,0,5.39-4.39,6.39,6.39,0,0,0,.17-1.59Z" transform="translate(-307 -475)"/><path class="cls-2" d="M409.13,581.22V603.4c22.91,27.84,108.41,18.23,116,0V582C507.44,592.06,441.66,600.69,409.13,581.22Zm6.9,21.68c-2.14,0-3.88-2.87-3.88-6.41s1.74-6.41,3.88-6.41,3.88,2.87,3.88,6.41S418.18,602.91,416,602.91Zm22.05,8.62c-3.06,0-5.54-2.87-5.54-6.41s2.48-6.41,5.54-6.41,5.54,2.87,5.54,6.41S441.15,611.53,438.08,611.53Zm28.83,2.22a6.41,6.41,0,1,1,6.41-6.41A6.41,6.41,0,0,1,466.91,613.75Zm29.32-2.22c-3.06,0-5.54-2.87-5.54-6.41s2.48-6.41,5.54-6.41,5.54,2.87,5.54,6.41S499.29,611.53,496.23,611.53Zm21.93-7.88c-2.14,0-3.88-2.87-3.88-6.41s1.74-6.41,3.88-6.41,3.88,2.87,3.88,6.41S520.3,603.65,518.16,603.65Z" transform="translate(-307 -475)"/><path class="cls-2" d="M485.52,524.94v63s26.86-1.36,38.44-11.46c.25-3.7.25-3.2-4.93-16.26,44.6-11.83,42.13-62.83,42.13-62.83s-.25-6.41-4.44-1.48c-1.73,2.22-10.59,39.18-53,41.64C501.28,530.85,494.38,525.68,485.52,524.94Z" transform="translate(-307 -475)"/><path class="cls-2" d="M448.7,524.94v63s-26.86-1.36-38.44-11.46c-.25-3.7-.25-3.2,4.93-16.26-44.6-11.83-42.13-62.83-42.13-62.83s.25-6.41,4.44-1.48c1.73,2.22,10.59,39.18,53,41.64C432.93,530.85,439.83,525.68,448.7,524.94Z" transform="translate(-307 -475)"/><path class="cls-2" d="M453,520.68v67.21s9.24.37,13.67.37,13.92-.37,13.92-.37V520.68C480.62,510.84,453,510.84,453,520.68Zm13.82,59.38a5.91,5.91,0,1,1,5.91-5.91A5.91,5.91,0,0,1,466.84,580.05Zm0-23.47a5.91,5.91,0,1,1,5.91-5.91A5.91,5.91,0,0,1,466.84,556.59Zm0-23.47a5.91,5.91,0,1,1,5.91-5.91A5.91,5.91,0,0,1,466.84,533.12Z" transform="translate(-307 -475)"/></svg>